<?xml version="1.0" encoding="UTF-8"?>
<!DOCTYPE svg PUBLIC "-//W3C//DTD SVG 1.1//EN" "http://www.w3.org/Graphics/SVG/1.1/DTD/svg11.dtd">
<!-- Creator: CorelDRAW -->
<svg xmlns="http://www.w3.org/2000/svg" xml:space="preserve" width="15mm" height="15mm" version="1.1" style="shape-rendering:geometricPrecision; text-rendering:geometricPrecision; image-rendering:optimizeQuality; fill-rule:evenodd; clip-rule:evenodd"
viewBox="0 0 245.72 245.72"
 xmlns:xlink="http://www.w3.org/1999/xlink"
 xmlns:xodm="http://www.corel.com/coreldraw/odm/2003">
 <defs>
  <style type="text/css">
   <![CDATA[
    .fil0 {fill:none}
    .fil1 {fill:white;fill-rule:nonzero}
   ]]>
  </style>
 </defs>
 <g id="Layer_x0020_1">
  <metadata id="CorelCorpID_0Corel-Layer"/>
  <circle class="fil0" cx="122.86" cy="122.86" r="122.86"/>
  <path class="fil1" d="M139.13 164.53c7.46,-10.03 9.9,-18.04 7.82,-20.13 -0.45,-0.45 -1.22,-0.68 -2.3,-0.68 -3.59,0 -10.1,2.77 -17.83,8.53 2.14,1.83 4.29,3.76 6.41,5.88 2.07,2.07 4.04,4.22 5.9,6.41l0 0zm51.62 -88.7l-9.91 -9.91c-0.93,-0.93 -2.19,-1.45 -3.5,-1.45l-19.81 0c-2.74,0 -4.95,2.21 -4.95,4.95l0 39.63c0,2.74 2.22,4.95 4.95,4.95l9.91 0 0 4.95 -39.63 0 0 -4.95 9.91 0c2.74,0 4.95,-2.21 4.95,-4.95l0 -29.72c0,-1.32 -0.52,-2.57 -1.45,-3.5l-9.91 -9.91c-0.93,-0.93 -2.19,-1.45 -3.5,-1.45l-19.81 0c-2.74,0 -4.95,2.21 -4.95,4.95l0 39.63c0,2.74 2.22,4.95 4.95,4.95l9.91 0 0 4.95 -39.63 0 0 -4.95 9.91 0c2.74,0 4.95,-2.21 4.95,-4.95l0 -29.72c0,-1.32 -0.52,-2.57 -1.45,-3.5l-9.91 -9.91c-0.93,-0.93 -2.19,-1.45 -3.5,-1.45l-19.81 0c-2.74,0 -4.95,2.21 -4.95,4.95l0 39.63c0,2.74 2.22,4.95 4.95,4.95l9.91 0 0 9.91c0,2.73 2.22,4.95 4.95,4.95l44.58 0 0 5.31c-4.84,0.69 -9.43,2.4 -13.53,5 5.16,1.12 11.69,4.65 18.49,9.86 6.79,-5.21 13.31,-8.74 18.47,-9.86 -4.1,-2.59 -8.69,-4.3 -13.52,-5l0 -5.31 44.58 0c2.74,0 4.95,-2.22 4.95,-4.95l0 -9.91 9.91 0c2.74,0 4.95,-2.21 4.95,-4.95l0 -29.72c0,-1.32 -0.52,-2.57 -1.45,-3.5l0 0zm-124.86 3.5l14.86 0c1.37,0 2.48,1.11 2.48,2.48 0,1.37 -1.11,2.48 -2.48,2.48l-14.86 0c-1.37,0 -2.48,-1.11 -2.48,-2.48 0,-1.37 1.11,-2.48 2.48,-2.48zm0 9.91l14.86 0c1.37,0 2.48,1.11 2.48,2.48 0,1.37 -1.11,2.48 -2.48,2.48l-14.86 0c-1.37,0 -2.48,-1.11 -2.48,-2.48 0,-1.37 1.11,-2.48 2.48,-2.48l0 0zm0 14.86c-1.37,0 -2.48,-1.11 -2.48,-2.48 0,-1.37 1.11,-2.48 2.48,-2.48l14.86 0c1.37,0 2.48,1.11 2.48,2.48 0,1.37 -1.11,2.48 -2.48,2.48l-14.86 0zm49.53 -24.77l14.86 0c1.37,0 2.48,1.11 2.48,2.48 0,1.37 -1.11,2.48 -2.48,2.48l-14.86 0c-1.37,0 -2.48,-1.11 -2.48,-2.48 0,-1.37 1.11,-2.48 2.48,-2.48zm0 9.91l14.86 0c1.37,0 2.48,1.11 2.48,2.48 0,1.37 -1.11,2.48 -2.48,2.48l-14.86 0c-1.37,0 -2.48,-1.11 -2.48,-2.48 0,-1.37 1.11,-2.48 2.48,-2.48l0 0zm0 14.86c-1.37,0 -2.48,-1.11 -2.48,-2.48 0,-1.37 1.11,-2.48 2.48,-2.48l14.86 0c1.37,0 2.48,1.11 2.48,2.48 0,1.37 -1.11,2.48 -2.48,2.48l-14.86 0zm64.39 0l-14.86 0c-1.37,0 -2.48,-1.11 -2.48,-2.48 0,-1.37 1.11,-2.48 2.48,-2.48l14.86 0c1.37,0 2.48,1.11 2.48,2.48 0,1.37 -1.11,2.48 -2.48,2.48l0 0zm0 -9.91l-14.86 0c-1.37,0 -2.48,-1.11 -2.48,-2.48 0,-1.37 1.11,-2.48 2.48,-2.48l14.86 0c1.37,0 2.48,1.11 2.48,2.48 0,1.37 -1.11,2.48 -2.48,2.48l0 0zm0 -9.91l-14.86 0c-1.37,0 -2.48,-1.11 -2.48,-2.48 0,-1.37 1.11,-2.48 2.48,-2.48l14.86 0c1.37,0 2.48,1.11 2.48,2.48 0,1.37 -1.11,2.48 -2.48,2.48zm-37.48 84.21c5,6.51 8.69,13.07 9.86,18.43 3.45,-5.47 5.33,-11.8 5.33,-18.43 0,-6.63 -1.88,-12.96 -5.33,-18.43 -1.17,5.36 -4.85,11.92 -9.86,18.43zm-48.83 -18.44c-7.07,11.24 -7.07,25.65 0,36.89 1.16,-5.36 4.85,-11.93 9.86,-18.44 -5.01,-6.51 -8.7,-13.08 -9.86,-18.44zm10.86 47.76c5.48,3.47 11.83,5.35 18.48,5.35 6.65,0 13,-1.89 18.48,-5.36 -5.16,-1.12 -11.68,-4.65 -18.47,-9.86 -6.8,5.21 -13.32,8.75 -18.49,9.86zm11.62 -36.18c-2.25,2.26 -4.29,4.56 -6.22,6.86 1.93,2.3 3.97,4.61 6.22,6.86 2.34,2.34 4.63,4.35 6.86,6.22 2.24,-1.86 4.52,-3.87 6.86,-6.22 2.34,-2.34 4.36,-4.62 6.23,-6.86 -1.87,-2.24 -3.89,-4.52 -6.23,-6.86 -2.35,-2.35 -4.63,-4.37 -6.86,-6.24 -2.23,1.87 -4.51,3.89 -6.86,6.24zm-3.5 17.23c-2.06,-2.06 -4.03,-4.21 -5.89,-6.4 -2.39,3.21 -4.41,6.36 -5.89,9.32 -3.14,6.27 -3.01,9.73 -1.94,10.8 1.97,1.96 10,-0.35 20.13,-7.84 -2.14,-1.83 -4.29,-3.76 -6.41,-5.88l0 0zm20.73 0c-2.12,2.12 -4.27,4.05 -6.41,5.88 10.14,7.5 18.18,9.8 20.13,7.84 2.09,-2.09 -0.36,-10.1 -7.82,-20.13 -1.86,2.19 -3.84,4.34 -5.9,6.41l0 0zm-34.45 -34.45c-1.06,1.06 -1.19,4.53 1.94,10.8 1.48,2.95 3.5,6.11 5.89,9.32 1.86,-2.18 3.83,-4.33 5.89,-6.39 2.12,-2.12 4.26,-4.05 6.41,-5.88 -7.74,-5.76 -14.24,-8.53 -17.83,-8.53 -1.07,0 -1.84,0.23 -2.3,0.68z"/>
 </g>
</svg>
