<?xml version="1.0" encoding="UTF-8"?>
<!DOCTYPE svg PUBLIC "-//W3C//DTD SVG 1.1//EN" "http://www.w3.org/Graphics/SVG/1.1/DTD/svg11.dtd">
<!-- Creator: CorelDRAW -->
<svg xmlns="http://www.w3.org/2000/svg" xml:space="preserve" width="15mm" height="15mm" version="1.1" style="shape-rendering:geometricPrecision; text-rendering:geometricPrecision; image-rendering:optimizeQuality; fill-rule:evenodd; clip-rule:evenodd"
viewBox="0 0 245.72 245.72"
 xmlns:xlink="http://www.w3.org/1999/xlink"
 xmlns:xodm="http://www.corel.com/coreldraw/odm/2003">
 <defs>
  <style type="text/css">
   <![CDATA[
    .fil0 {fill:none}
    .fil1 {fill:white;fill-rule:nonzero}
   ]]>
  </style>
 </defs>
 <g id="Layer_x0020_1">
  <metadata id="CorelCorpID_0Corel-Layer"/>
  <circle class="fil0" cx="122.86" cy="122.86" r="122.86"/>
  <path class="fil1" d="M138.44 45.29l-44.33 0c-3.06,0 -5.54,2.48 -5.54,5.54l0 44.33c0,3.06 2.48,5.54 5.54,5.54l44.33 0c3.06,0 5.54,-2.48 5.54,-5.54l0 -44.33c0,-3.06 -2.48,-5.54 -5.54,-5.54l0 0zm30.47 121.89c-1.53,0 -2.77,-1.24 -2.77,-2.77 0,-1.53 1.24,-2.77 2.77,-2.77 13.97,0 24.93,-10.97 24.93,-27.7 0,-12.39 -6.74,-23.41 -17.42,-29.19 -3.11,13.52 -15.22,23.65 -29.67,23.65 -1.53,0 -2.77,-1.24 -2.77,-2.77 0,-1.53 1.24,-2.77 2.77,-2.77 13.43,0 24.34,-10.7 24.84,-24.01 -0.76,-13.63 -9.75,-25.07 -22.07,-29.46l0 31.56c0,2.92 -2.37,5.28 -5.28,5.28l-5.8 0 0 33.24 22.67 0c1.15,-3.22 4.19,-5.54 7.8,-5.54 4.58,0 8.31,3.73 8.31,8.31 0,4.58 -3.73,8.31 -8.31,8.31 -3.61,0 -6.65,-2.32 -7.8,-5.54l-25.44 0c-1.53,0 -2.77,-1.24 -2.77,-2.77l0 -36.01 -5.54 0 0 40.41 21.37 21.37c1.08,-0.52 2.28,-0.83 3.56,-0.83 4.58,0 8.31,3.73 8.31,8.31 0,4.58 -3.73,8.31 -8.31,8.31 -4.58,0 -8.31,-3.73 -8.31,-8.31 0,-1.28 0.31,-2.48 0.83,-3.56l-22.18 -22.18c-0.52,-0.52 -0.81,-1.22 -0.81,-1.96l0 -41.56 -11.08 0 0 44.84c3.22,1.15 5.54,4.19 5.54,7.8 0,4.58 -3.73,8.31 -8.31,8.31 -4.58,0 -8.31,-3.73 -8.31,-8.31 0,-3.61 2.32,-6.65 5.54,-7.8l0 -44.84 -5.54 0 0 19.39c0,1.53 -1.24,2.77 -2.77,2.77l-14.36 0c-1.15,3.22 -4.19,5.54 -7.8,5.54 -4.58,0 -8.31,-3.73 -8.31,-8.31 0,-4.58 3.73,-8.31 8.31,-8.31 3.61,0 6.65,2.32 7.8,5.54l11.59 0 0 -16.62 -5.8 0c-2.92,0 -5.28,-2.36 -5.28,-5.28l0 -38.42c-13.88,3.03 -24.39,16.91 -24.88,28.98 3.66,-1.21 7.57,-1.9 11.65,-1.9 1.53,0 2.77,1.24 2.77,2.77 0,1.53 -1.24,2.77 -2.77,2.77 -16.67,0 -30.28,12.94 -31.02,29.1 0.73,17.28 14.67,31.16 31.97,31.78 2.39,-0.07 4.77,-0.37 7.08,-0.98 6.62,-1.72 12.6,-5.68 16.87,-11.18 0.94,-1.21 2.68,-1.43 3.88,-0.49 1.21,0.94 1.43,2.68 0.49,3.89 -5.01,6.47 -12.06,11.13 -19.84,13.15 -0.3,0.08 -0.61,0.11 -0.92,0.18 7,10.83 19.02,17.66 32.42,17.66 3.01,0 5.97,-0.34 8.84,-1.01 6.06,13.89 19.93,23.17 35.48,23.17 12.22,0 23.44,-5.58 30.84,-15.32 0.09,-0.1 0.17,-0.2 0.24,-0.3 5.04,-6.72 7.7,-14.73 7.7,-23.16 0,-2.24 -0.23,-4.44 -0.61,-6.61 -5.73,7.58 -14.68,12.15 -24.32,12.15l0 0zm-63.61 -110.81l0.05 0c3.06,0 5.54,2.48 5.54,5.54 0,3.06 -2.48,5.54 -5.54,5.54 -3.06,0 -5.57,-2.48 -5.57,-5.54 0,-3.06 2.45,-5.54 5.51,-5.54zm0.05 33.24c-3.06,0 -5.57,-2.48 -5.57,-5.54 0,-3.06 2.45,-5.54 5.51,-5.54l0.05 0c3.06,0 5.54,2.48 5.54,5.54 0,3.06 -2.48,5.54 -5.54,5.54l0 0zm11.08 -11.08c-3.06,0 -5.57,-2.48 -5.57,-5.54 0,-3.06 2.45,-5.54 5.51,-5.54l0.05 0c3.06,0 5.54,2.48 5.54,5.54 0,3.06 -2.48,5.54 -5.54,5.54zm11.08 11.08c-3.06,0 -5.57,-2.48 -5.57,-5.54 0,-3.06 2.45,-5.54 5.51,-5.54l0.06 0c3.06,0 5.54,2.48 5.54,5.54 0,3.06 -2.48,5.54 -5.54,5.54l0 0zm0 -22.16c-3.06,0 -5.57,-2.48 -5.57,-5.54 0,-3.06 2.45,-5.54 5.51,-5.54l0.06 0c3.06,0 5.54,2.48 5.54,5.54 0,3.06 -2.48,5.54 -5.54,5.54l0 0z"/>
 </g>
</svg>
