<?xml version="1.0" encoding="UTF-8"?>
<!DOCTYPE svg PUBLIC "-//W3C//DTD SVG 1.1//EN" "http://www.w3.org/Graphics/SVG/1.1/DTD/svg11.dtd">
<!-- Creator: CorelDRAW -->
<svg xmlns="http://www.w3.org/2000/svg" xml:space="preserve" width="15mm" height="15mm" version="1.1" style="shape-rendering:geometricPrecision; text-rendering:geometricPrecision; image-rendering:optimizeQuality; fill-rule:evenodd; clip-rule:evenodd"
viewBox="0 0 1500 1500"
 xmlns:xlink="http://www.w3.org/1999/xlink"
 xmlns:xodm="http://www.corel.com/coreldraw/odm/2003">
 <defs>
  <style type="text/css">
   <![CDATA[
    .fil0 {fill:none}
    .fil1 {fill:white;fill-rule:nonzero}
   ]]>
  </style>
 </defs>
 <g id="Layer_x0020_1">
  <metadata id="CorelCorpID_0Corel-Layer"/>
  <g id="_2048338690672">
   <circle class="fil0" cx="750" cy="750" r="750"/>
  </g>
  <path class="fil1" d="M1180.19 1049.52l-856.82 0c-16.5,5.34 -28.44,17.28 -28.44,32l0 56.88c0,14.73 11.94,26.67 26.67,26.67l856.8 0c14.73,0 26.67,-11.94 26.67,-26.67l0 -56.88c0,-14.72 -11.94,-26.66 -24.88,-32zm-430.19 -172.42c-14.7,0 -26.67,-11.97 -26.67,-26.67 0,-14.73 -11.94,-26.66 -26.66,-26.66 -14.72,0 -26.66,11.93 -26.66,26.66 0,34.76 22.28,64.4 53.32,75.4l0 13.48c0,14.73 11.95,26.66 26.67,26.66 14.72,0 26.66,-11.93 26.66,-26.66l0 -13.48c31.04,-11 53.33,-40.64 53.33,-75.4 0,-44.11 -35.89,-79.99 -79.99,-79.99 -14.7,0 -26.67,-11.97 -26.67,-26.67 0,-14.71 11.97,-26.66 26.67,-26.66 14.7,0 26.66,11.95 26.66,26.66 0,14.72 11.95,26.67 26.67,26.67 14.72,0 26.66,-11.94 26.66,-26.67 0,-34.76 -22.28,-64.39 -53.32,-75.4l0 -13.48c0,-14.72 -11.95,-26.66 -26.67,-26.66 -14.72,0 -26.67,11.94 -26.67,26.66l0 13.48c-31.04,11.01 -53.32,40.64 -53.32,75.4 0,44.11 35.88,80 79.99,80 14.7,0 26.67,11.95 26.67,26.66 0,14.7 -11.97,26.67 -26.67,26.67zm199.98 71.1l0 53.33 204.43 0 0 -53.33c0,-14.72 -11.94,-26.66 -26.67,-26.66l-151.1 0c-14.72,0 -26.66,11.94 -26.66,26.66zm35.56 -355.53l133.32 0 0 275.53 -133.32 0 0 -275.53zm-604.4 0l133.32 0 0 275.53 -133.32 0 0 -275.53zm-35.55 355.53l0 53.33 204.43 0 0 -53.33c0,-14.72 -11.94,-26.66 -26.66,-26.66l-151.1 0c-14.73,0 -26.67,11.94 -26.67,26.66zm843.03 -513.47l-428.4 -177.77c-6.54,-2.71 -13.89,-2.71 -20.44,0l-428.4 177.77c-9.96,4.13 -16.45,13.85 -16.45,24.62l0 53.33c0,14.73 11.94,26.67 26.66,26.67l856.81 0c14.73,0 26.67,-11.94 26.67,-26.67l0 -53.33c0,-10.78 -6.49,-20.49 -16.45,-24.62zm-278.63 24.62l-319.98 0c-14.72,0 -26.66,-11.93 -26.66,-26.66 0,-14.72 11.94,-26.67 26.66,-26.67l319.98 0c14.72,0 26.66,11.95 26.66,26.67 0,14.73 -11.94,26.66 -26.66,26.66z"/>
 </g>
</svg>
