<?xml version="1.0" encoding="UTF-8"?>
<!DOCTYPE svg PUBLIC "-//W3C//DTD SVG 1.1//EN" "http://www.w3.org/Graphics/SVG/1.1/DTD/svg11.dtd">
<!-- Creator: CorelDRAW -->
<svg xmlns="http://www.w3.org/2000/svg" xml:space="preserve" width="15mm" height="15mm" version="1.1" style="shape-rendering:geometricPrecision; text-rendering:geometricPrecision; image-rendering:optimizeQuality; fill-rule:evenodd; clip-rule:evenodd"
viewBox="0 0 419.83 419.83"
 xmlns:xlink="http://www.w3.org/1999/xlink"
 xmlns:xodm="http://www.corel.com/coreldraw/odm/2003">
 <defs>
  <style type="text/css">
   <![CDATA[
    .fil0 {fill:none}
    .fil1 {fill:white;fill-rule:nonzero}
   ]]>
  </style>
 </defs>
 <g id="Layer_x0020_1">
  <metadata id="CorelCorpID_0Corel-Layer"/>
  <circle class="fil0" cx="209.92" cy="209.92" r="209.92"/>
  <path class="fil1" d="M315.89 175.97l-38.34 0 -30.64 22.05c-0.67,0.47 -1.46,0.71 -2.27,0.7 -2.15,0 -3.89,-1.73 -3.91,-3.88l0 -18.87 -15.87 0c-2.18,-0.02 -3.95,-1.76 -4.01,-3.95l0 -59.09 -116.38 0 0 130.93 211.43 0 0 -67.89zm-46.7 142.57c0,-2.14 -1.74,-3.88 -3.88,-3.88l-21.38 0 -7.52 -26.67 -52.31 0 -7.52 26.67 -21.38 0c-2.14,0 -3.88,1.74 -3.88,3.88 0,2.14 1.74,3.88 3.88,3.88l110.11 0c2.14,0 3.88,-1.74 3.88,-3.88zm-20.7 -146.51l0 15.23 25.53 -18.35c0.67,-0.47 1.47,-0.71 2.29,-0.7l50.26 0 0 -70.8 -97.95 0 0 70.8 16.04 0c1.02,-0.01 2,0.38 2.72,1.1 0.72,0.72 1.13,1.69 1.12,2.71zm46.07 -57.3c0,-1.63 1.96,-2.33 3.88,-2.33 1.86,0 3.88,0.7 3.88,2.33l0 37.82c0,1.57 -2.02,2.39 -3.88,2.39 -1.92,0 -3.88,-0.81 -3.88,-2.39l0 -37.82zm-42.14 36.49l11.23 -36.6c0.52,-1.75 2.68,-2.56 4.83,-2.56 2.21,0 4.37,0.82 4.89,2.56l11.23 36.61c0.06,0.19 0.1,0.39 0.12,0.59 0,1.81 -2.74,3.17 -4.77,3.17 -1.28,0 -2.27,-0.35 -2.56,-1.45l-2.21 -7.63 -13.33 0 -2.21 7.63c-0.29,1.11 -1.28,1.4 -2.56,1.4 -2.03,0 -4.77,-1.28 -4.77,-3.14 0.03,-0.2 0.06,-0.39 0.12,-0.58zm16.06 -29.47l-5.06 17.87 10.12 0 -5.06 -17.87zm-164 129.88l211.43 0 0 28.61 -211.43 0 0 -28.61z"/>
 </g>
</svg>
