<svg width="57" height="57" viewBox="0 0 57 57" fill="none" xmlns="http://www.w3.org/2000/svg">
<g clip-path="url(#clip0_4315_1480)">
<path d="M38.361 40.4412C38.361 40.1731 38.5761 39.958 38.8442 39.958C39.1123 39.958 39.3275 40.1762 39.3275 40.4412V42.8855C39.3275 43.375 39.1279 43.8209 38.8068 44.142C38.4857 44.4631 38.0429 44.6627 37.5503 44.6627V44.6596H13.3721V44.6627C12.8826 44.6627 12.4368 44.4631 12.1156 44.142C11.7945 43.8209 11.595 43.3782 11.595 42.8855V22.8539C11.595 22.8383 11.595 22.8259 11.5981 22.8103V19.5678H11.595C11.595 19.0783 11.7945 18.6325 12.1156 18.3114C12.4368 17.9902 12.8795 17.7907 13.3721 17.7907H15.2178C15.4859 17.7907 15.7011 18.0058 15.7011 18.2739C15.7011 18.5421 15.4859 18.7572 15.2178 18.7572H13.3721C13.1507 18.7572 12.9481 18.8476 12.8015 18.9941C12.655 19.1407 12.5646 19.3433 12.5646 19.5647H12.5615V22.3676H15.2396C15.5078 22.3676 15.7229 22.5827 15.7229 22.8508C15.7229 23.1189 15.5078 23.3341 15.2396 23.3341H12.5646V42.8793C12.5646 43.1007 12.655 43.3033 12.8015 43.4499C12.9481 43.5964 13.1507 43.6868 13.3721 43.6868V43.6899H37.5503V43.6868C37.7748 43.6868 37.9743 43.5964 38.1209 43.4499C38.2674 43.3033 38.3578 43.1007 38.3578 42.8793V40.435L38.361 40.4412ZM30.3202 34.293C30.0521 34.293 29.837 34.0748 29.837 33.8097C29.837 33.5416 30.0552 33.3265 30.3202 33.3265H40.1069C40.375 33.3265 40.5902 33.5416 40.5902 33.8097C40.5902 34.0779 40.3719 34.293 40.1069 34.293H30.3202ZM30.3202 32.0919C30.0521 32.0919 29.837 31.8767 29.837 31.6086C29.837 31.3405 30.0552 31.1254 30.3202 31.1254H40.1069C40.375 31.1254 40.5902 31.3436 40.5902 31.6086C40.5902 31.8767 40.3719 32.0919 40.1069 32.0919H30.3202ZM30.3202 29.8907C30.0521 29.8907 29.837 29.6756 29.837 29.4075C29.837 29.1393 30.0552 28.9242 30.3202 28.9242H40.1069C40.375 28.9242 40.5902 29.1425 40.5902 29.4075C40.5902 29.6756 40.3719 29.8907 40.1069 29.8907H30.3202ZM23.0091 32.7154V30.4987C23.0091 30.3709 23.0403 30.2493 23.0964 30.137C23.165 29.9998 23.2679 29.8907 23.3926 29.8128C23.5204 29.7348 23.6669 29.6912 23.8166 29.6912C23.9351 29.6912 24.0567 29.7192 24.1751 29.7785L26.3856 30.8853C26.5509 30.9695 26.6725 31.0973 26.7442 31.2438C26.8003 31.3561 26.8315 31.4808 26.8315 31.6055C26.8315 31.7271 26.8034 31.8518 26.7442 31.9672C26.6693 32.1137 26.5509 32.2415 26.3856 32.3257L24.1751 33.4325C24.0567 33.4917 23.932 33.5198 23.8166 33.5198C23.6669 33.5198 23.5204 33.4762 23.3926 33.3982C23.2679 33.3203 23.165 33.2111 23.0964 33.074C23.0403 32.9648 23.0091 32.8432 23.0091 32.7123V32.7154ZM23.9787 30.7575V32.4566L25.6717 31.6086L23.9787 30.7606V30.7575ZM33.834 22.8352C33.834 23.437 33.5877 23.9826 33.1948 24.3785C32.7989 24.7745 32.2533 25.0177 31.6515 25.0177C31.0498 25.0177 30.5011 24.7714 30.1082 24.3785C29.7123 23.9826 29.4691 23.437 29.4691 22.8352C29.4691 22.2335 29.7123 21.6848 30.1082 21.2919C30.5042 20.896 31.0498 20.6528 31.6515 20.6528C32.2533 20.6528 32.7989 20.896 33.1948 21.2919C33.5908 21.6879 33.834 22.2335 33.834 22.8352ZM32.5089 23.6926C32.7303 23.4744 32.8643 23.1688 32.8643 22.8352C32.8643 22.4985 32.7272 22.1961 32.5089 21.9747C32.2907 21.7534 31.9851 21.6193 31.6515 21.6193C31.3148 21.6193 31.0124 21.7565 30.791 21.9747C30.5697 22.193 30.4356 22.4985 30.4356 22.8352C30.4356 23.1688 30.5728 23.4744 30.791 23.6926C31.0093 23.914 31.3148 24.048 31.6515 24.048C31.9851 24.048 32.2907 23.9109 32.5089 23.6926ZM37.8185 21.0238C38.0398 21.1735 38.0991 21.4759 37.9494 21.6972C37.7998 21.9186 37.4973 21.9778 37.2791 21.8282C37.1762 21.7596 37.0702 21.7066 36.958 21.6723C36.8488 21.638 36.7304 21.6193 36.6025 21.6193C36.2658 21.6193 35.9634 21.7565 35.742 21.9747C35.5238 22.193 35.3866 22.4985 35.3866 22.8352C35.3866 23.1688 35.5238 23.4744 35.742 23.6926C35.9603 23.914 36.2658 24.048 36.6025 24.048C36.905 24.048 37.1357 23.9358 37.2947 23.7519C37.3976 23.6334 37.4724 23.4868 37.5192 23.3185H37.0515C36.7834 23.3185 36.5682 23.1034 36.5682 22.8352C36.5682 22.5671 36.7834 22.352 37.0515 22.352H38.0679C38.336 22.352 38.5511 22.5702 38.5511 22.8352C38.5511 23.4338 38.3672 23.9857 38.0242 24.3848C37.6844 24.7776 37.2043 25.0177 36.6025 25.0177C36.0008 25.0177 35.4521 24.7714 35.0592 24.3785C34.6633 23.9826 34.4201 23.437 34.4201 22.8352C34.4201 22.2335 34.6633 21.6848 35.0592 21.2919C35.4552 20.896 36.0008 20.6528 36.6025 20.6528C36.8208 20.6528 37.0328 20.6871 37.2386 20.7494C37.4506 20.8149 37.647 20.9085 37.8216 21.0269L37.8185 21.0238ZM26.0926 23.6147C26.0926 24.0013 25.9367 24.3505 25.6841 24.603C25.4316 24.8555 25.0824 25.0114 24.6958 25.0114C24.3279 25.0114 23.5391 25.0145 23.5391 25.0145C23.271 25.0145 23.0559 24.7994 23.0559 24.5344V24.5313H23.0527V22.7012V21.1329C23.0527 20.8648 23.2679 20.6497 23.536 20.6497H24.5243C24.8735 20.6497 25.1915 20.79 25.4191 21.0207C25.6498 21.2483 25.7901 21.5663 25.7901 21.9155C25.7901 22.1493 25.7247 22.3707 25.6155 22.5577C25.6405 22.5796 25.6623 22.6014 25.6873 22.6232C25.9398 22.8758 26.0957 23.225 26.0957 23.6116L26.0926 23.6147ZM24.0193 22.2179H24.2874C24.3996 22.2179 24.4869 22.2179 24.5243 22.2179C24.6054 22.2179 24.6802 22.1836 24.7332 22.1306C24.7862 22.0776 24.8205 22.0028 24.8205 21.9217C24.8205 21.8407 24.7862 21.7658 24.7332 21.7097C24.6802 21.6567 24.6054 21.6224 24.5243 21.6224H24.0224V22.2179H24.0193ZM24.9982 23.9202C25.0762 23.8423 25.1261 23.7363 25.1261 23.6147C25.1261 23.4962 25.0762 23.3902 24.9982 23.3122C24.9203 23.2343 24.8143 23.1844 24.6958 23.1844H24.0193V24.048C24.3061 24.048 24.6241 24.0449 24.6958 24.0449C24.8143 24.0449 24.9203 23.9982 24.9982 23.9202ZM26.9593 21.1361C26.9593 20.8679 27.1775 20.6528 27.4426 20.6528C27.7107 20.6528 27.9258 20.8679 27.9258 21.1361V24.0512L28.6304 24.048C28.8985 24.048 29.1137 24.2632 29.1137 24.5282C29.1137 24.7932 28.8985 25.0114 28.6335 25.0114C28.6304 25.0114 27.8198 25.0145 27.4924 25.0114C27.4768 25.0114 27.4581 25.0145 27.4426 25.0145C27.1744 25.0145 26.9593 24.7963 26.9593 24.5313V21.1361ZM24.6865 14.9972C24.4183 14.9972 24.2032 14.7821 24.2032 14.5139C24.2032 14.2458 24.4183 14.0307 24.6865 14.0307H25.1822C25.4503 14.0307 25.6654 14.2458 25.6654 14.5139C25.6654 14.7821 25.4503 14.9972 25.1822 14.9972H24.6865ZM22.2702 14.9972C22.0021 14.9972 21.7869 14.7821 21.7869 14.5139C21.7869 14.2458 22.0052 14.0307 22.2702 14.0307H22.7659C23.034 14.0307 23.2492 14.2458 23.2492 14.5139C23.2492 14.7821 23.0309 14.9972 22.7659 14.9972H22.2702ZM19.8508 14.9972C19.5827 14.9972 19.3675 14.7821 19.3675 14.5139C19.3675 14.2458 19.5827 14.0307 19.8508 14.0307H20.3465C20.6147 14.0307 20.8298 14.2458 20.8298 14.5139C20.8298 14.7821 20.6115 14.9972 20.3465 14.9972H19.8508ZM42.8879 12.5684H18.7097C18.4852 12.5684 18.2857 12.6589 18.1392 12.8054C17.9926 12.9519 17.9022 13.1546 17.9022 13.3759H17.8991V16.1788H43.6923V13.3759C43.6923 13.1546 43.6019 12.9519 43.4554 12.8054C43.3088 12.6589 43.1062 12.5684 42.8848 12.5684H42.8879ZM18.7097 11.5988H42.8879C43.3774 11.5988 43.8233 11.7984 44.1444 12.1195C44.4655 12.4406 44.6651 12.8833 44.6651 13.3759V16.6621V19.6115C44.6651 19.8796 44.4499 20.0947 44.1818 20.0947C43.9137 20.0947 43.6986 19.8765 43.6986 19.6115V17.1453H17.9053V36.6906H17.9084C17.9084 36.9119 17.9989 37.1146 18.1454 37.2611C18.2919 37.4076 18.4946 37.4981 18.7159 37.4981H42.8942C43.1155 37.4981 43.3182 37.4076 43.4647 37.2611C43.6113 37.1146 43.7017 36.9119 43.7017 36.6906V22.0745C43.7017 21.8064 43.9199 21.5912 44.1849 21.5912C44.4531 21.5912 44.6682 21.8095 44.6682 22.0745V36.6906C44.6682 37.18 44.4686 37.6259 44.1475 37.947C43.8264 38.2681 43.3837 38.4677 42.8911 38.4677H18.7128C18.2233 38.4677 17.7775 38.2681 17.4564 37.947C17.1352 37.6259 16.9357 37.1832 16.9357 36.6906H16.9388V16.6589V13.3728H16.9357C16.9357 12.8833 17.1352 12.4375 17.4564 12.1164C17.7775 11.7952 18.2202 11.5957 18.7128 11.5957L18.7097 11.5988ZM27.7138 35.1972H22.133C21.8212 35.1972 21.5375 35.0693 21.3349 34.8667C21.1291 34.6609 21.0044 34.3803 21.0044 34.0685V29.1393C21.0044 28.8276 21.1322 28.5439 21.3349 28.3412C21.5406 28.1354 21.8212 28.0107 22.133 28.0107H27.7138C28.0256 28.0107 28.3093 28.1385 28.5119 28.3412C28.7177 28.547 28.8424 28.8276 28.8424 29.1393V34.0685C28.8424 34.3803 28.7146 34.664 28.5119 34.8667C28.3062 35.0724 28.0256 35.1972 27.7138 35.1972ZM22.133 34.2275H27.7138C27.7574 34.2275 27.798 34.2088 27.8292 34.1808C27.8572 34.1527 27.8759 34.1122 27.8759 34.0654V29.1362C27.8759 29.0926 27.8572 29.052 27.8292 29.0209C27.8011 28.9897 27.7606 28.9741 27.7138 28.9741V28.971H22.133V28.9741C22.0894 28.9741 22.0488 28.9928 22.0176 29.0209C21.9896 29.0489 21.9709 29.0895 21.9709 29.1362V34.0654C21.9709 34.1091 21.9896 34.1496 22.0176 34.1808C22.0457 34.2119 22.0862 34.2275 22.133 34.2275ZM39.4678 26.9694H22.133C21.8212 26.9694 21.5375 26.8416 21.3349 26.6389C21.1291 26.4331 21.0044 26.1525 21.0044 25.8408V19.8235C21.0044 19.5117 21.1322 19.228 21.3349 19.0253C21.5406 18.8196 21.8212 18.6948 22.133 18.6948H39.4678C39.7795 18.6948 40.0632 18.8227 40.2659 19.0253C40.4717 19.2311 40.5964 19.5117 40.5964 19.8235V25.8408C40.5964 26.1525 40.4686 26.4362 40.2659 26.6389C40.0601 26.8447 39.7795 26.9694 39.4678 26.9694ZM22.133 25.9998H39.4678C39.5114 25.9998 39.5519 25.9811 39.5831 25.953C39.6112 25.9249 39.6299 25.8844 39.6299 25.8376V19.8204C39.6299 19.7767 39.6112 19.7362 39.5831 19.705C39.5551 19.6769 39.5145 19.6582 39.4678 19.6582H22.133C22.0894 19.6582 22.0488 19.6769 22.0176 19.705C21.9896 19.7331 21.9709 19.7736 21.9709 19.8204V25.8376C21.9709 25.8813 21.9896 25.9218 22.0176 25.953C22.0457 25.9811 22.0862 25.9998 22.133 25.9998ZM14.5194 21.1828C14.2513 21.1828 14.0362 20.9677 14.0362 20.6996C14.0362 20.4314 14.2544 20.2163 14.5194 20.2163H15.0152C15.2833 20.2163 15.4984 20.4314 15.4984 20.6996C15.4984 20.9677 15.2802 21.1828 15.0152 21.1828H14.5194Z" fill="white"/>
</g>
<defs>
<clipPath id="clip0_4315_1480">
<rect width="56.26" height="56.26" fill="white"/>
</clipPath>
</defs>
</svg>
