<svg width="57" height="57" viewBox="0 0 57 57" fill="none" xmlns="http://www.w3.org/2000/svg">
<g clip-path="url(#clip0_4315_1476)">
<path d="M16.2516 25.9356C16.2516 26.2937 15.9641 26.5812 15.6059 26.5812C15.2478 26.5812 14.9603 26.2937 14.9603 25.9356V20.7807C14.9603 20.4226 15.2478 20.1351 15.6059 20.1351C15.843 20.1351 16.0548 20.2662 16.1658 20.4579L18.5667 23.9332L18.5365 20.7757C18.5314 20.4226 18.8189 20.13 19.177 20.125C19.5301 20.1199 19.8227 20.4074 19.8277 20.7656L19.8781 25.6985C19.8781 25.7187 19.8832 25.7389 19.8832 25.7641C19.8832 25.9306 19.8327 26.0819 19.7571 26.2029C19.6713 26.3341 19.5604 26.4249 19.4191 26.4803C19.2577 26.5409 19.0913 26.5409 18.9198 26.4753C18.7887 26.4249 18.6676 26.3341 18.5718 26.1928L16.2616 22.8487V25.9356H16.2516ZM27.8072 44.0181C27.8072 44.3762 27.5197 44.6637 27.1616 44.6637C26.8035 44.6637 26.516 44.3762 26.516 44.0181C26.516 43.66 26.8035 43.3725 27.1616 43.3725C27.5197 43.3725 27.8072 43.66 27.8072 44.0181ZM27.6508 40.4672C27.2927 40.4672 27.0052 40.1797 27.0052 39.8215C27.0052 39.4634 27.2927 39.1759 27.6508 39.1759H37.426C37.7841 39.1759 38.0716 39.4634 38.0716 39.8215C38.0716 40.1797 37.7841 40.4672 37.426 40.4672H27.6508ZM27.6508 37.5366C27.2927 37.5366 27.0052 37.2491 27.0052 36.891C27.0052 36.5329 27.2927 36.2454 27.6508 36.2454H37.426C37.7841 36.2454 38.0716 36.5329 38.0716 36.891C38.0716 37.2491 37.7841 37.5366 37.426 37.5366H27.6508ZM27.6508 34.6061C27.2927 34.6061 27.0052 34.3186 27.0052 33.9605C27.0052 33.6024 27.2927 33.3149 27.6508 33.3149H37.426C37.7841 33.3149 38.0716 33.6024 38.0716 33.9605C38.0716 34.3186 37.7841 34.6061 37.426 34.6061H27.6508ZM15.6009 29.9859C15.2428 29.9859 14.9553 29.6984 14.9553 29.3402C14.9553 28.9821 15.2428 28.6946 15.6009 28.6946H37.426C37.7841 28.6946 38.0716 28.9821 38.0716 29.3402C38.0716 29.6984 37.7841 29.9859 37.426 29.9859H15.6009ZM23.1315 33.446H16.2465V40.331H23.1315V33.446ZM15.6009 32.1548H23.7771C24.1352 32.1548 24.4227 32.4423 24.4227 32.8004V40.9766C24.4227 41.3347 24.1352 41.6222 23.7771 41.6222H15.6009C15.2428 41.6222 14.9553 41.3347 14.9553 40.9766V32.8004C14.9553 32.4423 15.2428 32.1548 15.6009 32.1548ZM16.8619 18.4403C16.5038 18.4403 16.2163 18.1528 16.2163 17.7947C16.2163 17.4366 16.5038 17.1491 16.8619 17.1491H30.2283C30.5864 17.1491 30.8739 17.4366 30.8739 17.7947C30.8739 18.1528 30.5864 18.4403 30.2283 18.4403H16.8619ZM22.0168 14.5666C22.3749 14.5666 22.6624 14.8541 22.6624 15.2122C22.6624 15.5703 22.3749 15.8578 22.0168 15.8578H16.8619C16.5038 15.8578 16.2163 15.5703 16.2163 15.2122C16.2163 14.8541 16.5038 14.5666 16.8619 14.5666H22.0168ZM30.2283 14.5666C30.5864 14.5666 30.8739 14.8541 30.8739 15.2122C30.8739 15.5703 30.5864 15.8578 30.2283 15.8578H25.0734C24.7153 15.8578 24.4278 15.5703 24.4278 15.2122C24.4278 14.8541 24.7153 14.5666 25.0734 14.5666H30.2283ZM37.7589 14.5666H43.6905C44.0487 14.5666 44.3362 14.8541 44.3362 15.2122V42.3939C44.3362 42.4141 44.3362 42.4292 44.3362 42.4494C44.3311 42.6209 44.3109 42.7823 44.2706 42.9387C44.1495 43.4279 43.857 43.8567 43.4737 44.1593C43.0903 44.462 42.6111 44.6435 42.1067 44.6536C42.026 44.6536 41.9453 44.6536 41.8697 44.6435C41.8344 44.6486 41.794 44.6536 41.7537 44.6536H30.0669C29.7088 44.6536 29.4213 44.3661 29.4213 44.008C29.4213 43.6499 29.7088 43.3624 30.0669 43.3624H40.0337C39.8925 43.0698 39.8118 42.742 39.8118 42.3939V18.8287H34.5156C34.1575 18.8287 33.87 18.5412 33.87 18.1831V12.8869H13.2101V42.3939C13.2101 42.6613 13.316 42.9034 13.4925 43.0799C13.6691 43.2565 13.9112 43.3624 14.1785 43.3624H24.2512C24.6094 43.3624 24.8969 43.6499 24.8969 44.008C24.8969 44.3661 24.6094 44.6536 24.2512 44.6536H14.1785C13.5531 44.6536 12.9881 44.4014 12.5796 43.9929C12.171 43.5843 11.9188 43.0194 11.9188 42.3939V12.2413C11.9188 11.8832 12.2063 11.5957 12.5644 11.5957H34.5156C34.6821 11.5957 34.8435 11.6613 34.9696 11.7823L37.7488 14.5615L37.7589 14.5666ZM41.8596 43.3422C41.9403 43.3624 42.016 43.3725 42.0916 43.3725C42.3035 43.3674 42.5103 43.2918 42.6767 43.1556C42.8432 43.0244 42.9642 42.8428 43.0197 42.636C43.0348 42.5755 43.0449 42.51 43.0449 42.4494C43.0449 42.4343 43.0449 42.4141 43.0449 42.399V15.8629H39.0501L40.9164 17.7291C41.0324 17.8451 41.108 18.0065 41.108 18.1881V42.399C41.108 42.631 41.1837 42.8429 41.3149 43.0043C41.4107 43.1203 41.5317 43.2211 41.673 43.2817C41.6881 43.2867 41.6982 43.2918 41.7133 43.2968H41.7184L41.7688 43.3119C41.794 43.322 41.8142 43.3271 41.8243 43.3271C41.8344 43.3271 41.8445 43.3321 41.8546 43.3372H41.8646L41.8596 43.3422ZM38.9039 17.5375L35.1663 13.7999V17.5375H38.9039ZM28.6647 20.6344C28.7101 20.4125 28.8715 20.2208 29.1035 20.1502C29.4414 20.0443 29.8046 20.236 29.9105 20.5789L30.8588 23.6658L31.459 20.6546C31.5296 20.3066 31.8676 20.0745 32.2156 20.1452C32.5636 20.2158 32.7957 20.5537 32.725 20.9018L31.7163 25.981C31.7112 26.0113 31.7011 26.0365 31.6961 26.0667C31.6507 26.2029 31.575 26.3088 31.4741 26.3946C31.4489 26.4148 31.4237 26.44 31.3934 26.4551C31.2673 26.5358 31.1211 26.5812 30.9748 26.5812C30.8285 26.5812 30.6873 26.5409 30.5612 26.4602C30.425 26.3744 30.314 26.2433 30.2535 26.0718C30.2485 26.0617 30.2485 26.0566 30.2434 26.0466L29.2901 22.9546L28.3419 26.0163C28.3368 26.0314 28.3318 26.0466 28.3267 26.0617C28.2662 26.2332 28.1603 26.3643 28.0241 26.4501C27.898 26.5308 27.7517 26.5762 27.6105 26.5762C27.4642 26.5762 27.323 26.5358 27.1969 26.4551C27.0809 26.3795 26.98 26.2735 26.9195 26.1323C26.8943 26.0819 26.8791 26.0314 26.869 25.9759L25.8602 20.8866C25.7896 20.5386 26.0217 20.2006 26.3697 20.13C26.7177 20.0594 27.0557 20.2914 27.1263 20.6395L27.7215 23.6608L28.6596 20.6344H28.6647ZM37.6681 20.8009C37.9405 21.0279 37.9808 21.4314 37.7538 21.7088C37.5269 21.9812 37.1233 22.0215 36.8459 21.7945C36.8459 21.7945 36.1852 21.2397 35.4185 21.4667C35.2571 21.5171 35.1411 21.6029 35.0755 21.7037C35.0402 21.7592 35.02 21.8197 35.0099 21.8803C34.9999 21.9408 35.0049 21.9963 35.02 22.0518C35.0402 22.1123 35.0755 22.1728 35.131 22.2182C35.3126 22.2989 35.9027 22.5511 36.5383 22.7882C37.2898 23.0656 37.7337 23.5095 37.9405 23.9937C38.0766 24.3215 38.1019 24.6595 38.0313 24.9823C37.9657 25.29 37.8144 25.5825 37.5924 25.8297C37.199 26.2735 36.5887 26.5762 35.8674 26.5762C35.4135 26.5762 34.9948 26.4803 34.6216 26.324C34.208 26.1474 33.8549 25.8902 33.5926 25.5977C33.3555 25.3354 33.3757 24.9268 33.638 24.6897C33.9003 24.4527 34.3088 24.4729 34.5459 24.7351C34.6922 24.8965 34.8889 25.0378 35.1259 25.1387C35.3428 25.2294 35.595 25.2849 35.8674 25.2849C36.2003 25.2849 36.4676 25.1588 36.629 24.9772C36.6997 24.8965 36.7501 24.8058 36.7703 24.715C36.7854 24.6393 36.7804 24.5586 36.7501 24.4829C36.6744 24.3064 36.4727 24.1349 36.0944 23.9937C35.2823 23.691 34.556 23.3682 34.556 23.3682C34.5257 23.3531 34.4955 23.338 34.4652 23.3178C34.1172 23.0908 33.8902 22.768 33.7843 22.4149C33.7136 22.1829 33.6985 21.9307 33.7338 21.6886C33.7691 21.4465 33.8549 21.2145 33.9961 20.9976C34.218 20.6546 34.5711 20.3721 35.0503 20.2259C36.4727 19.7971 37.663 20.7958 37.663 20.8009H37.6681ZM23.7569 22.6772C24.115 22.6772 24.4026 22.9647 24.4026 23.3228C24.4026 23.681 24.115 23.9685 23.7569 23.9685H22.4052V25.2345H23.9183C24.2765 25.2345 24.564 25.522 24.564 25.8801C24.564 26.2382 24.2765 26.5257 23.9183 26.5257H21.7595C21.4014 26.5257 21.1139 26.2382 21.1139 25.8801V23.3228V20.7656C21.1139 20.4074 21.4014 20.1199 21.7595 20.1199H23.9183C24.2765 20.1199 24.564 20.4074 24.564 20.7656C24.564 21.1237 24.2765 21.4112 23.9183 21.4112H22.4052V22.6772H23.7569Z" fill="white"/>
</g>
<defs>
<clipPath id="clip0_4315_1476">
<rect width="56.26" height="56.26" fill="white"/>
</clipPath>
</defs>
</svg>
