<svg width="57" height="57" viewBox="0 0 57 57" fill="none" xmlns="http://www.w3.org/2000/svg">
<path fill-rule="evenodd" clip-rule="evenodd" d="M20.0963 23.7848C18.729 23.7848 17.6163 22.6724 17.6163 21.3048C17.6163 19.9373 18.729 18.8248 20.0963 18.8248C21.4641 18.8248 22.5765 19.9373 22.5765 21.3048C22.5765 22.6724 21.4641 23.7848 20.0963 23.7848ZM35.8199 37.3582C34.4526 37.3582 33.3399 36.2457 33.3399 34.8782C33.3399 33.5107 34.4526 32.3982 35.8199 32.3982C37.1876 32.3982 38.3001 33.5107 38.3001 34.8782C38.3001 36.2457 37.1876 37.3582 35.8199 37.3582ZM31.8573 36.5195C31.6015 35.9024 31.0285 35.5189 30.3613 35.5189C30.3299 35.5189 30.3047 35.4935 30.3047 35.4625V34.294C30.3047 34.2628 30.33 34.2375 30.3613 34.2375C31.0283 34.2375 31.6015 33.854 31.8573 33.2368C32.1129 32.6197 31.9787 31.943 31.507 31.4716C31.4848 31.4494 31.4848 31.4135 31.507 31.3915L32.3332 30.5651C32.3552 30.5431 32.3913 30.5431 32.4133 30.5651C32.885 31.0369 33.5615 31.1711 34.1787 30.9155C34.7959 30.6598 35.1793 30.0866 35.1793 29.4194C35.1793 29.3883 35.2047 29.363 35.2357 29.363H36.4042C36.4355 29.363 36.4608 29.3882 36.4608 29.4194C36.4608 30.0866 36.8442 30.6598 37.4614 30.9154C38.0785 31.1711 38.7551 31.0368 39.2268 30.5651C39.249 30.543 39.2847 30.543 39.3067 30.5651L40.1332 31.3913C40.1552 31.4135 40.1552 31.4494 40.1332 31.4716C39.6614 31.9431 39.5273 32.6196 39.7828 33.2368C40.0385 33.854 40.6118 34.2375 41.2788 34.2375C41.31 34.2375 41.3354 34.2629 41.3354 34.2941V35.4625C41.3354 35.4936 41.3099 35.5189 41.2788 35.5189C40.6118 35.5189 40.0385 35.9024 39.7828 36.5195C39.5273 37.1368 39.6615 37.8132 40.1332 38.2849C40.1552 38.3071 40.1552 38.3429 40.133 38.3649L39.3067 39.1912C39.2846 39.2134 39.2488 39.2134 39.2268 39.1912C38.755 38.7196 38.0786 38.5854 37.4614 38.8409C36.8442 39.0966 36.4608 39.6699 36.4608 40.3368C36.4608 40.3681 36.4354 40.3935 36.4043 40.3935H35.2357C35.2046 40.3935 35.1793 40.368 35.1793 40.337C35.1793 39.6692 34.7959 39.0957 34.179 38.84C33.9723 38.7545 33.7589 38.7127 33.5487 38.7127C33.1316 38.7127 32.7272 38.8773 32.4132 39.1913C32.3912 39.2135 32.3551 39.2135 32.3333 39.1913L31.5069 38.365C31.4847 38.343 31.4847 38.3072 31.5069 38.285C31.9787 37.8134 32.1128 37.1367 31.8572 36.5196L31.8573 36.5195ZM39.7698 39.6539L40.596 38.8277C40.7302 38.6936 40.8041 38.5148 40.8041 38.325C40.8041 38.135 40.73 37.9565 40.5959 37.8222C40.26 37.4863 40.2679 37.0584 40.3876 36.77C40.5069 36.4816 40.8038 36.1733 41.2788 36.1733C41.6708 36.1733 41.9898 35.8544 41.9898 35.4623V34.294C41.9898 33.9019 41.6708 33.583 41.2788 33.583C40.8038 33.583 40.5069 33.2746 40.3876 32.9864C40.268 32.6978 40.2601 32.27 40.5959 31.934C40.873 31.657 40.873 31.2059 40.5959 30.9284L40.0504 30.383V27.2298H46.4202C46.8936 27.2298 47.3242 27.0362 47.6357 26.7247C47.9474 26.4129 48.1409 25.9825 48.1409 25.5091V17.1002C48.1409 16.6282 47.9474 16.1978 47.6345 15.8846C47.3225 15.573 46.8921 15.3794 46.4202 15.3794H34.4027C33.9292 15.3794 33.4988 15.573 33.1871 15.8846C32.8756 16.1961 32.6819 16.6267 32.6819 17.1002V20.8625H26.2662V20.7205C26.2662 20.3284 25.9473 20.0094 25.5552 20.0094C25.0802 20.0094 24.7833 19.7011 24.664 19.4128C24.5444 19.1244 24.5365 18.6965 24.8722 18.3606C25.1494 18.0834 25.1494 17.6323 24.8722 17.355L24.046 16.5288C23.9119 16.3945 23.7332 16.3207 23.5432 16.3207C23.3534 16.3207 23.1748 16.3945 23.0405 16.5288C22.7046 16.8648 22.2767 16.8566 21.9883 16.7371C21.6999 16.6177 21.3917 16.3208 21.3917 15.8458C21.3917 15.4537 21.0728 15.1348 20.6806 15.1348H19.5122C19.1203 15.1348 18.8013 15.4537 18.8013 15.8458C18.8013 16.3208 18.493 16.6179 18.2047 16.7371C17.9163 16.8567 17.4883 16.8647 17.1524 16.5288C17.018 16.3945 16.8395 16.3207 16.6497 16.3207C16.4598 16.3207 16.2813 16.3945 16.1469 16.5288L15.3206 17.3552C15.0436 17.6324 15.0436 18.0833 15.3208 18.3607C15.6568 18.6966 15.6486 19.1246 15.5291 19.4128C15.4097 19.7013 15.1127 20.0094 14.6377 20.0094C14.2457 20.0094 13.9267 20.3284 13.9267 20.7205V21.8889C13.9267 22.281 14.2457 22.6 14.6377 22.6C15.1127 22.6 15.4099 22.9081 15.5291 23.1966C15.6485 23.485 15.6567 23.9128 15.3206 24.2488C15.1865 24.3831 15.1125 24.5616 15.1125 24.7515C15.1125 24.9413 15.1865 25.12 15.3206 25.2543L16.1469 26.0805C16.2813 26.2148 16.4598 26.2887 16.6497 26.2887C16.8397 26.2887 17.018 26.2148 17.1524 26.0805C17.4889 25.744 17.9167 25.7516 18.2052 25.8711C18.3164 25.9171 18.4304 25.9897 18.5287 26.0887V31.1739H12.9945C12.2345 31.1739 11.5427 31.4853 11.0403 31.9874C10.5394 32.4886 10.228 33.18 10.228 33.9404V38.6066C10.228 39.367 10.5394 40.0585 11.0415 40.5608C11.5427 41.0618 12.2345 41.3731 12.9945 41.3731H16.1769V42.3492H14.1858C14.0209 42.3492 13.8873 42.4829 13.8873 42.6477C13.8873 42.8125 14.0209 42.9461 14.1858 42.9461H16.4754H20.0754H22.3278C22.4927 42.9461 22.6263 42.8125 22.6263 42.6477C22.6263 42.4829 22.4927 42.3492 22.3278 42.3492H20.3739V41.3731H23.519C24.2794 41.3731 24.9708 41.0618 25.4731 40.5595C25.9741 40.0585 26.2855 39.367 26.2855 38.6066V36.5469H31.1238C31.1788 36.6186 31.2219 36.6949 31.2527 36.7699C31.3722 37.0584 31.3803 37.4861 31.0443 37.8222C30.9101 37.9565 30.8362 38.1348 30.8362 38.3248C30.8362 38.5146 30.9101 38.6934 31.0443 38.8277L31.8705 39.6537C32.0048 39.788 32.1833 39.862 32.3733 39.862C32.5633 39.862 32.7417 39.788 32.876 39.6537C33.2125 39.3173 33.6403 39.3249 33.9288 39.4444C34.217 39.5639 34.5249 39.861 34.5249 40.3368C34.5249 40.7288 34.8438 41.0478 35.2359 41.0478H36.4044C36.7965 41.0478 37.1155 40.7288 37.1155 40.3368C37.1155 39.8618 37.4236 39.5649 37.7121 39.4455C38.0004 39.326 38.4285 39.3179 38.7643 39.6537C38.8986 39.788 39.0772 39.862 39.267 39.862C39.457 39.862 39.6355 39.788 39.7698 39.6537V39.6539ZM39.4534 29.9187C39.3933 29.9025 39.3307 29.8941 39.2667 29.8941C39.0769 29.8941 38.8984 29.9681 38.764 30.1022C38.4282 30.4384 38.0003 30.4302 37.7118 30.3107C37.4235 30.1913 37.1152 29.8943 37.1152 29.4193C37.1152 29.0273 36.7964 28.7083 36.4042 28.7083H35.2357C34.8437 28.7083 34.5248 29.0273 34.5248 29.4193C34.5248 29.8943 34.2165 30.1915 33.9282 30.3107C33.6399 30.4303 33.2119 30.4383 32.8759 30.1022C32.7416 29.9681 32.563 29.8941 32.3732 29.8941C32.1832 29.8941 32.0047 29.9681 31.8704 30.1022L31.0442 30.9286C30.7671 31.206 30.7671 31.6569 31.0444 31.9342C31.3803 32.2702 31.3722 32.698 31.2526 32.9864C31.1332 33.2748 30.8363 33.583 30.3613 33.583C29.9692 33.583 29.6502 33.9019 29.6502 34.294V35.4625C29.6502 35.651 29.724 35.8226 29.8443 35.9501H26.2853V33.9405C26.2853 33.1801 25.9739 32.4888 25.4718 31.9864C24.9706 31.4855 24.2793 31.1741 23.5189 31.1741H19.1257V27.3602C19.237 27.4325 19.3699 27.4746 19.5124 27.4746H20.6808C21.0728 27.4746 21.3918 27.1557 21.3918 26.7636C21.3918 26.2887 21.6999 25.9917 21.9885 25.8723C22.2767 25.7529 22.7048 25.7447 23.0407 26.0806C23.175 26.2149 23.3535 26.2887 23.5434 26.2887C23.7333 26.2887 23.9119 26.2149 24.0462 26.0806L24.8724 25.2543C25.0065 25.1201 25.0805 24.9414 25.0805 24.7516C25.0805 24.5617 25.0065 24.3831 24.8722 24.2487C24.5364 23.9129 24.5444 23.485 24.664 23.1965C24.7833 22.9082 25.0802 22.5999 25.5552 22.5999C25.9473 22.5999 26.2662 22.2809 26.2662 21.8888V21.4594H32.6819V25.5092C32.6819 25.9819 32.8756 26.4119 33.1883 26.7248C33.5 27.0362 33.9299 27.2299 34.4027 27.2299H39.4534V29.9187ZM35.8199 38.0127C37.5484 38.0127 38.9546 36.6066 38.9546 34.8782C38.9546 33.1498 37.5484 31.7438 35.8199 31.7438C34.0917 31.7438 32.6857 33.1498 32.6857 34.8782C32.6857 36.6066 34.0917 38.0127 35.8199 38.0127ZM16.7738 41.3732V42.3493H19.7768V41.3732H16.7738ZM18.9809 25.6118C19.0304 25.6416 19.0707 25.6854 19.096 25.7379C19.3259 26.0183 19.4558 26.375 19.4558 26.7635C19.4558 26.7947 19.4812 26.82 19.5122 26.82H20.6808C20.712 26.82 20.7372 26.7946 20.7372 26.7634C20.7372 26.0963 21.1207 25.5231 21.7378 25.2674C22.3553 25.0119 23.0315 25.1461 23.5032 25.6176C23.5252 25.6398 23.5611 25.6398 23.5833 25.6176L24.4095 24.7914C24.4317 24.7694 24.4317 24.7336 24.4097 24.7114C23.9379 24.2396 23.8037 23.5632 24.0593 22.946C24.3149 22.3288 24.8882 21.9454 25.5553 21.9454C25.5865 21.9454 25.6119 21.92 25.6119 21.8889V20.7207C25.6119 20.6893 25.5865 20.664 25.5553 20.664C24.8882 20.664 24.3149 20.2806 24.0593 19.6633C23.8037 19.046 23.938 18.3696 24.4097 17.8981C24.4317 17.8759 24.4317 17.84 24.4097 17.8178L23.5833 16.9916C23.5612 16.9694 23.5254 16.9694 23.5032 16.9916C23.0314 17.4634 22.3548 17.5975 21.7378 17.3418C21.1207 17.0863 20.7372 16.5131 20.7372 15.8459C20.7372 15.8145 20.7119 15.7894 20.6806 15.7894H19.5122C19.4812 15.7894 19.4558 15.8148 19.4558 15.8459C19.4558 16.5131 19.0724 17.0863 18.4551 17.342C17.8378 17.5975 17.1614 17.4633 16.6897 16.9916C16.6677 16.9696 16.6317 16.9696 16.6097 16.9916L15.7835 17.818C15.7613 17.84 15.7613 17.8759 15.7835 17.8981C16.2553 18.3697 16.3894 19.0463 16.1337 19.6633C15.878 20.2806 15.3048 20.664 14.6377 20.664C14.6064 20.664 14.5811 20.6894 14.5811 20.7205V21.8889C14.5811 21.9201 14.6065 21.9454 14.6377 21.9454C15.3049 21.9454 15.878 22.3288 16.1337 22.946C16.3894 23.5633 16.2552 24.2398 15.7835 24.7114C15.7613 24.7336 15.7613 24.7694 15.7835 24.7914L16.6098 25.6176C16.6317 25.6398 16.6677 25.6398 16.6897 25.6176C17.0038 25.3037 17.4081 25.1391 17.8253 25.1391C18.0354 25.1391 18.2487 25.1808 18.4556 25.2665C18.6574 25.35 18.8343 25.4676 18.9809 25.6116V25.6118ZM20.7317 34.4401C20.63 34.3113 20.6519 34.1244 20.7806 34.0227C20.9093 33.921 21.0963 33.9428 21.1979 34.0715L22.931 36.259C23.0169 36.3679 23.0145 36.5182 22.934 36.6236L21.2726 38.7973C21.1729 38.9278 20.9858 38.9529 20.8552 38.8532C20.7246 38.7535 20.6995 38.5664 20.7992 38.4358L22.3209 36.446L20.7317 34.4401ZM15.5255 34.0715C15.6272 33.9428 15.8141 33.921 15.9428 34.0227C16.0716 34.1245 16.0935 34.3113 15.9917 34.4401L14.4026 36.446L15.9242 38.4358C16.0239 38.5664 15.9988 38.7536 15.8683 38.8532C15.7377 38.9529 15.5504 38.9278 15.4509 38.7973L13.7889 36.624C13.7089 36.5182 13.7065 36.3678 13.7925 36.259L15.5255 34.0715ZM17.4169 37.8079C17.3005 37.9243 17.1113 37.9243 16.9949 37.8079C16.8785 37.6915 16.8785 37.5023 16.9949 37.3859L19.1846 35.1962C19.3009 35.0799 19.4902 35.0799 19.6065 35.1962C19.7229 35.3126 19.7229 35.5018 19.6065 35.6182L17.4169 37.8079ZM23.519 31.7709H18.8273H12.9946C12.3978 31.7709 11.855 32.015 11.4619 32.4078C11.0691 32.8009 10.825 33.3437 10.825 33.9405V38.6067C10.825 39.2035 11.0691 39.7463 11.4619 40.1395C11.855 40.5321 12.3978 40.7764 12.9946 40.7764H16.4754H20.0754H23.519C24.1157 40.7764 24.6585 40.5321 25.0517 40.1395C25.4444 39.7463 25.6886 39.2035 25.6886 38.6067V36.2485V33.9405C25.6886 33.3437 25.4444 32.8009 25.0517 32.4078C24.6585 32.015 24.1157 31.7709 23.519 31.7709ZM42.7502 19.2414C42.6485 19.1127 42.6704 18.9257 42.7991 18.824C42.9279 18.7223 43.1148 18.7441 43.2165 18.8729L44.9495 21.0603C45.0354 21.1692 45.033 21.3196 44.9525 21.425L43.2911 23.5986C43.1915 23.7292 43.0043 23.7542 42.8737 23.6545C42.7431 23.5548 42.7181 23.3677 42.8177 23.2372L44.3394 21.2473L42.7502 19.2414ZM37.544 18.8729C37.6458 18.7441 37.8326 18.7223 37.9614 18.824C38.0901 18.9258 38.1119 19.1127 38.0103 19.2414L36.4211 21.2473L37.9427 23.2372C38.0424 23.3677 38.0174 23.5549 37.8868 23.6545C37.7562 23.7542 37.569 23.7292 37.4694 23.5986L35.8075 21.4253C35.7275 21.3195 35.7251 21.1691 35.811 21.0603L37.544 18.8729ZM38.8709 21.614C38.7061 21.614 38.5724 21.4803 38.5724 21.3155C38.5724 21.1506 38.7061 21.017 38.8709 21.017H41.9674C42.1323 21.017 42.2659 21.1506 42.2659 21.3155C42.2659 21.4803 42.1323 21.614 41.9674 21.614H38.8709ZM46.4202 15.9763H34.4027C34.0939 15.9763 33.8128 16.1028 33.6092 16.3066C33.4057 16.5101 33.2788 16.7914 33.2788 17.1001V21.1608V25.509C33.2788 25.8181 33.4054 26.0994 33.6086 26.303C33.8122 26.5061 34.0936 26.6328 34.4027 26.6328H39.7519H46.4202C46.7289 26.6328 47.0101 26.5061 47.2137 26.3025C47.4173 26.0988 47.544 25.8176 47.544 25.509V17.1001C47.544 16.7904 47.418 16.5094 47.2148 16.3066C47.0108 16.1024 46.7297 15.9763 46.4202 15.9763ZM20.0964 24.4391C21.8249 24.4391 23.2311 23.033 23.2311 21.3047C23.2311 19.5762 21.8249 18.1702 20.0964 18.1702C18.3682 18.1702 16.9622 19.5762 16.9622 21.3047C16.9622 23.033 18.3682 24.4391 20.0964 24.4391Z" fill="white" stroke="white" stroke-width="1.00019" stroke-miterlimit="22.9256"/>
</svg>
