<?xml version="1.0" encoding="UTF-8"?>
<!DOCTYPE svg PUBLIC "-//W3C//DTD SVG 1.1//EN" "http://www.w3.org/Graphics/SVG/1.1/DTD/svg11.dtd">
<!-- Creator: CorelDRAW -->
<svg xmlns="http://www.w3.org/2000/svg" xml:space="preserve" width="15mm" height="15mm" version="1.1" style="shape-rendering:geometricPrecision; text-rendering:geometricPrecision; image-rendering:optimizeQuality; fill-rule:evenodd; clip-rule:evenodd"
viewBox="0 0 1440.55 1440.55"
 xmlns:xlink="http://www.w3.org/1999/xlink"
 xmlns:xodm="http://www.corel.com/coreldraw/odm/2003">
 <defs>
  <style type="text/css">
   <![CDATA[
    .fil0 {fill:none}
    .fil1 {fill:white;fill-rule:nonzero}
   ]]>
  </style>
 </defs>
 <g id="Layer_x0020_1">
  <metadata id="CorelCorpID_0Corel-Layer"/>
  <circle class="fil0" cx="720.28" cy="720.28" r="720.28"/>
  <path class="fil1" d="M423.91 613.34l8 4.63 0 50.74 -36.43 9.1 84.48 49.29 -0.61 29.63 -1.3 4.53 49.97 -11.12 0 -11.87c0,-21.53 8.7,-41.25 22.94,-55.83l-54.97 -13.73 -0.06 -50.7 8.01 -4.64c24.73,-14.32 40.1,-40.88 40.1,-69.32l0 -28c0,-45.08 -34.82,-82.81 -77.64,-84.09 -21.69,-0.85 -42.56,7.35 -58.25,22.56 -15.68,15.21 -24.33,35.65 -24.33,57.5l0 32.04c0,28.44 15.35,55 40.07,69.29l0 0zm136.16 365.21c0,-9.9 -8.06,-17.96 -17.96,-17.96 -4.73,0 -9.35,1.9 -12.71,5.25l-28.16 28.16c-3.35,3.35 -5.25,7.98 -5.25,12.71 0,9.9 8.06,17.96 17.96,17.96 4.73,0 9.35,-1.91 12.71,-5.25l28.16 -28.16c3.35,-3.35 5.25,-7.98 5.25,-12.71zm96.12 96.12c0,-9.9 -8.06,-17.96 -17.96,-17.96 -4.73,0 -9.35,1.9 -12.71,5.25l-28.16 28.16c-3.35,3.35 -5.25,7.98 -5.25,12.71 0,9.9 8.06,17.96 17.96,17.96 4.73,0 9.35,-1.91 12.71,-5.25l28.16 -28.16c3.35,-3.35 5.25,-7.98 5.25,-12.71zm-48.06 -48.07c0,-9.9 -8.06,-17.96 -17.96,-17.96 -4.73,0 -9.36,1.91 -12.71,5.25l-28.17 28.17c-3.34,3.34 -5.25,7.98 -5.25,12.71 0,9.9 8.06,17.96 17.96,17.96 4.73,0 9.35,-1.91 12.71,-5.26l28.16 -28.16c3.35,-3.35 5.26,-7.98 5.26,-12.71zm78.16 78.16c-4.73,0 -9.36,1.91 -12.71,5.25l-28.16 28.17c-3.35,3.34 -5.26,7.98 -5.26,12.71 0,9.9 8.06,17.96 17.96,17.96 4.73,0 9.36,-1.91 12.71,-5.26l28.16 -28.16c3.35,-3.35 5.26,-7.98 5.26,-12.71 0,-9.9 -8.06,-17.96 -17.96,-17.96zm45.44 38.43c-2.46,5.5 -5.79,10.59 -10.09,14.89l-12.02 12.03 11.98 10.56c3.04,2.7 6.97,4.19 11.04,4.19l2.97 0c9.21,0 16.7,-7.49 16.7,-16.71 0,-4.98 -2.19,-9.66 -6,-12.84l-14.57 -12.12zm152.7 -310.78l-24.36 -0.61 -100.69 -28.76c-16.48,-4.73 -34.63,-3.01 -49.93,4.64l-89.36 44.68c-7.39,3.71 -11.97,11.1 -11.97,19.34l0 3.17c0,11.92 9.69,21.63 21.63,21.63 3.91,0 7.74,-1.06 11.08,-3.06l59.68 -35.78c10.05,-6.04 21.5,-9.22 33.19,-9.22 15.98,0 31.31,5.89 43.17,16.58l135.34 121.81c0.96,0.86 1.88,1.75 2.76,2.68l269.9 -134.95 0 -180.26 -300.43 158.12zm-129.02 56.41c-10.35,-9.31 -26.44,-10.9 -38.41,-3.7l-59.67 35.76c-8.29,5 -17.86,7.64 -27.58,7.64 -29.59,0 -53.68,-24.08 -53.68,-53.67l0 -3.17c0,-20.45 11.36,-38.84 29.68,-48l80.01 -40.01 -23.6 -7.55c-27.69,-8.85 -57.6,-10.23 -85.95,-3.89l-108.16 24.05 -43.14 151 49.22 29.52c1.4,-1.89 2.79,-3.79 4.48,-5.48l28.17 -28.16c9.28,-9.31 22.16,-14.65 35.32,-14.65 26.97,0 48.88,21.5 49.82,48.25 26.13,0.92 47.13,21.93 48.06,48.06 26.14,0.92 47.14,21.93 48.07,48.07 18.96,0.67 35.14,11.9 43.01,27.99l35.75 29.8c4.71,3.92 10.7,6.11 16.84,6.11 9.21,0 16.71,-7.5 16.71,-16.71 0,-4.98 -2.2,-9.66 -6.01,-12.84l-84.37 -70.29 20.53 -24.63 87.02 72.51c3,2.53 6.8,3.9 10.68,3.9l3.51 0c9.21,0 16.7,-7.49 16.7,-16.71 0,-4.98 -2.19,-9.66 -6,-12.84l-84.37 -70.29 20.52 -24.62 86.88 72.39c3.07,2.58 7.01,4 11.02,4l2.78 0c9.52,0 17.24,-7.72 17.24,-17.22 0,-4.88 -2.08,-9.55 -5.7,-12.81l-135.37 -121.82zm141.08 -376.82l0 32.04c0,28.44 15.35,55 40.07,69.29l7.99 4.63 0 50.74 -54.98 13.73c14.23,14.58 22.94,34.28 22.94,55.83l0 43.16 176.18 -92.72 -80.04 -19.99 -0.07 -50.7 8.01 -4.64c24.74,-14.32 40.11,-40.88 40.11,-69.32l0 -28c0,-45.08 -34.83,-82.81 -77.65,-84.09 -21.73,-0.85 -42.54,7.35 -58.25,22.56 -15.68,15.21 -24.32,35.65 -24.32,57.5l0 0zm-300.04 179.62c-21.42,5.37 -36.4,24.55 -36.4,46.64l0 4.74 9.19 -2.04c33.82,-7.49 69.6,-5.92 102.65,4.68l72.52 23.18c8.03,0.31 16.02,1.19 23.77,3.4l98.51 28.15 9.82 0 3.96 -2.08 0 -60.03c0,-22.09 -14.98,-41.27 -36.4,-46.64l-91.75 -22.92 -0.07 -50.7 8.02 -4.64c24.73,-14.32 40.1,-40.88 40.1,-69.32l0 -28c0,-45.08 -34.82,-82.81 -77.64,-84.09 -21.63,-0.85 -42.56,7.35 -58.25,22.56 -15.69,15.21 -24.33,35.65 -24.33,57.5l0 32.04c0,28.44 15.35,55 40.07,69.29l8 4.63 0 50.74 -91.77 22.92zm-148.54 53.87l-36.54 -21.31 -56.48 225.9 31.54 10.51 1.34 0 60.14 -210.51 0 -4.58zm464.6 -109.52c-29.86,-20.86 -48.06,-55.25 -48.06,-91.93l0 -32.04c0,-17.66 4.14,-34.59 11.76,-49.89 -30.31,-57.5 -90.6,-94.3 -155.95,-94.3 -65.98,0 -126.53,37.3 -156.62,95.6 7.89,15.87 12.43,33.78 12.43,52.63l0 28c0,36.68 -18.22,71.1 -48.08,91.94l0 7.67 64.1 16.05 64.08 -16.05 0 -7.68c-29.86,-20.86 -48.06,-55.25 -48.06,-91.93l0 -32.04c0,-30.61 12.09,-59.18 34.05,-80.49 21.95,-21.31 50.86,-32.49 81.53,-31.61 59.94,1.81 108.7,53.9 108.7,116.13l0 28c0,36.68 -18.22,71.11 -48.08,91.94l0 7.68 64.1 16.04 64.09 -16.04 0 -7.69zm-656.84 -11.82l0 292.84 68.76 22.93 58.13 -232.54 -126.89 -83.23zm287.62 -189.71c37.65,-60.61 104.56,-98.66 176.98,-98.66 71.89,0 138.62,37.69 176.38,97.71 0.64,-0.63 1.21,-1.34 1.86,-1.99 9.98,-9.69 21.45,-17.16 33.81,-22.48l18.17 -42.54 -51.12 -51.13 -45.04 29.31 -8.62 -5.28c-21.6,-13.23 -44.95,-22.93 -69.37,-28.77l-9.87 -2.38 -11.13 -52.54 -70.15 0 -11.12 52.54 -9.85 2.35c-24.43,5.86 -47.77,15.55 -69.37,28.78l-8.62 5.29 -45.05 -29.32 -51.18 51.18 17.98 42.85c13.26,5.98 25.25,14.54 35.32,25.08z"/>
 </g>
</svg>
