<?xml version="1.0" encoding="UTF-8"?>
<!DOCTYPE svg PUBLIC "-//W3C//DTD SVG 1.1//EN" "http://www.w3.org/Graphics/SVG/1.1/DTD/svg11.dtd">
<!-- Creator: CorelDRAW -->
<svg xmlns="http://www.w3.org/2000/svg" xml:space="preserve" width="15mm" height="15mm" version="1.1" style="shape-rendering:geometricPrecision; text-rendering:geometricPrecision; image-rendering:optimizeQuality; fill-rule:evenodd; clip-rule:evenodd"
viewBox="0 0 1006.5 1006.5"
 xmlns:xlink="http://www.w3.org/1999/xlink"
 xmlns:xodm="http://www.corel.com/coreldraw/odm/2003">
 <defs>
  <style type="text/css">
   <![CDATA[
    .fil0 {fill:none}
    .fil1 {fill:white;fill-rule:nonzero}
   ]]>
  </style>
 </defs>
 <g id="Layer_x0020_1">
  <metadata id="CorelCorpID_0Corel-Layer"/>
  <circle class="fil0" cx="503.25" cy="503.25" r="503.25"/>
  <path class="fil1" d="M386.42 653.22l0 21.43 43.39 0c-0.23,-3.56 -0.54,-7.09 -0.54,-10.71 0,-3.62 0.32,-7.16 0.54,-10.72l-43.39 0zm-53.56 -339.96c-7.09,-4.5 -15.43,-6.25 -23.57,-4.52 -8.39,1.79 -15.59,6.74 -20.27,13.94 -4.68,7.2 -6.27,15.79 -4.48,24.18 1.78,8.4 6.72,15.6 13.92,20.28 7.2,4.68 15.78,6.27 24.19,4.48 3.61,-0.77 6.97,-2.44 10.21,-4.54l0 -53.81zm0 297.11l0 -87.63 -41.89 8.9 16.73 78.72 25.16 0zm-139.25 53.56c0,17.71 14.42,32.13 32.13,32.13l139.25 0 0 -64.28 -139.25 0c-17.71,0 -32.13,14.42 -32.13,32.14zm482.03 -404l0 250.13c31.77,15.54 58.09,40.47 75.13,71.33l62.12 -292.29 -137.25 -29.17zm71.76 234.27l-62.87 -13.37 4.46 -20.96 62.87 13.37 -4.46 20.95zm8.92 -41.92l-62.87 -13.37 4.46 -20.95 62.87 13.37 -4.46 20.95zm8.9 -41.9l-62.85 -13.37 4.46 -20.95 62.85 13.37 -4.46 20.95zm8.91 -41.91l-62.87 -13.37 4.46 -20.95 62.87 13.37 -4.46 20.96zm-53.96 -55.28l4.46 -20.95 62.87 13.37 -4.46 20.96 -62.87 -13.37zm-434.38 297.18l-20.24 -95.22 67.32 -14.31 0 -21.91 -71.78 15.27 -4.44 -20.98c-4.76,-22.37 -0.52,-45.29 11.96,-64.48 5.66,-8.73 12.79,-16.14 20.91,-22.16 -0.9,-0.51 -1.83,-0.93 -2.71,-1.5 -12,-7.8 -20.26,-19.79 -23.22,-33.78 -2.97,-13.99 -0.32,-28.3 7.47,-40.3 7.78,-12 19.79,-20.24 33.77,-23.21 9.47,-2.03 19.09,-1.33 28.03,1.71l0 -29.57 -137.24 29.17 68.27 321.28 21.89 0zm47.08 -153.33l0 -65.31c-1.94,0.21 -3.89,0.43 -5.75,0.83 -16.8,3.57 -31.19,13.47 -40.54,27.86 -9.34,14.4 -12.53,31.58 -8.96,48.37l55.25 -11.74zm42.85 -28.77l257.08 0 0 67.4c7.31,1.39 14.46,3.27 21.42,5.56l0 -308.61 -299.92 0 0 417.76 32.13 0 0 21.42 45.98 0c2.88,-15.09 7.82,-29.42 14.39,-42.84l-71.07 0 0 -160.68zm192.81 -214.23l64.28 0 0 21.42 -64.28 0 0 -21.42zm0 42.84l64.28 0 0 21.43 -64.28 0 0 -21.43zm0 42.85l64.28 0 0 21.42 -64.28 0.01 0 -21.43zm0 42.84l64.28 0 0 21.43 -64.28 0 0 -21.43zm0 42.85l64.28 0 0 21.43 -64.28 0 0 -21.43zm-192.81 0c0,-34.62 20.67,-64.44 50.29,-77.95 -11.04,-9.82 -18.16,-23.97 -18.16,-39.88 0,-29.54 24.03,-53.56 53.56,-53.56 29.53,0 53.56,24.02 53.56,53.56 0,15.9 -7.12,30.05 -18.16,39.88 29.62,13.51 50.29,43.33 50.29,77.95l0 21.43 -171.39 0 0 -21.43zm117.83 -117.83c0,-17.75 -14.39,-32.14 -32.13,-32.14 -17.75,0 -32.13,14.39 -32.13,32.14 0,17.75 14.39,32.13 32.13,32.13 17.75,0 32.13,-14.39 32.13,-32.13zm-32.13 53.56c-35.45,0 -64.28,28.82 -64.28,64.27l128.54 0c0,-35.45 -28.83,-64.27 -64.27,-64.27zm-2.34 246.37c30.89,-45.23 82.82,-74.98 141.59,-74.98 3.62,0 7.15,0.32 10.71,0.54l0 -43.39 -214.24 0 0 117.83 61.94 0zm141.59 -53.56c-82.69,0 -149.97,67.27 -149.97,149.97 0,82.69 67.27,149.96 149.97,149.96 82.69,0 149.96,-67.27 149.96,-149.96 0,-82.69 -67.27,-149.97 -149.96,-149.97zm0 278.51c-70.88,0 -128.54,-57.66 -128.54,-128.54 0,-70.88 57.66,-128.54 128.54,-128.54 70.88,0 128.54,57.66 128.54,128.54 0,70.88 -57.66,128.54 -128.54,128.54zm0 -235.66c-59.07,0 -107.12,48.05 -107.12,107.12 0,59.06 48.05,107.11 107.12,107.11 59.06,0 107.11,-48.05 107.11,-107.11 0,-59.07 -48.05,-107.12 -107.11,-107.12zm0 192.81l0 -21.43c6.31,0 12.56,-0.91 18.55,-2.71l6.17 20.51c-7.99,2.4 -16.31,3.62 -24.72,3.62zm47.26 -14.21l-11.83 -17.86c18.06,-11.96 28.84,-32.01 28.84,-53.63 0,-35.45 -28.83,-64.28 -64.27,-64.28l0 -21.42c47.25,0 85.69,38.44 85.69,85.69 0,28.82 -14.37,55.55 -38.44,71.49l0 0z"/>
 </g>
</svg>
