<?xml version="1.0" encoding="UTF-8"?>
<!DOCTYPE svg PUBLIC "-//W3C//DTD SVG 1.1//EN" "http://www.w3.org/Graphics/SVG/1.1/DTD/svg11.dtd">
<!-- Creator: CorelDRAW -->
<svg xmlns="http://www.w3.org/2000/svg" xml:space="preserve" width="15mm" height="15mm" version="1.1" style="shape-rendering:geometricPrecision; text-rendering:geometricPrecision; image-rendering:optimizeQuality; fill-rule:evenodd; clip-rule:evenodd"
viewBox="0 0 372.96 372.96"
 xmlns:xlink="http://www.w3.org/1999/xlink"
 xmlns:xodm="http://www.corel.com/coreldraw/odm/2003">
 <defs>
  <style type="text/css">
   <![CDATA[
    .fil0 {fill:none}
    .fil1 {fill:white}
   ]]>
  </style>
 </defs>
 <g id="Layer_x0020_1">
  <metadata id="CorelCorpID_0Corel-Layer"/>
  <circle class="fil0" cx="186.48" cy="186.48" r="186.48"/>
  <path class="fil1" d="M166.38 217.1c-1.05,1.85 -3.05,3.11 -5.32,3.11l-18.48 0c-2.27,0 -4.27,-1.26 -5.32,-3.11l29.11 0zm45.07 -41.81c3.06,0.73 5.99,1.94 8.67,3.59l5.63 -2.5 6.64 6.64 -2.5 5.63c1.65,2.68 2.87,5.61 3.6,8.67l5.75 2.21 0 9.39 -5.75 2.21c-0.73,3.06 -1.94,5.99 -3.59,8.67l2.5 5.63 -6.64 6.64 -5.63 -2.5c-2.68,1.65 -5.61,2.86 -8.67,3.6l-2.21 5.75 -9.39 0 -2.21 -5.75c-3.06,-0.73 -5.99,-1.94 -8.67,-3.59l-5.63 2.5 -6.64 -6.64 2.5 -5.63c-1.65,-2.68 -2.86,-5.61 -3.6,-8.67l-5.75 -2.21 0 -9.39 5.75 -2.21c0.73,-3.06 1.94,-5.99 3.59,-8.67l-2.5 -5.63 6.64 -6.64 5.63 2.5c2.68,-1.65 5.61,-2.86 8.67,-3.6l2.21 -5.75 9.39 0 2.21 5.75zm-6.91 11.13c-9.83,0 -17.81,7.97 -17.81,17.81 0,9.84 7.97,17.81 17.81,17.81 9.84,0 17.81,-7.97 17.81,-17.81 0,-9.84 -7.97,-17.81 -17.81,-17.81zm0 -36.84l-86.49 45.75 44.4 0 0 -0.88 7.1 -2.74c0.41,-1.15 0.88,-2.28 1.4,-3.38l-3.09 -6.96 13.82 -13.83 6.96 3.09c1.1,-0.52 2.23,-0.99 3.38,-1.4l2.73 -7.11 19.55 0 2.74 7.11c1.15,0.41 2.28,0.88 3.38,1.4l6.96 -3.09 13.83 13.83 -3.09 6.96c0.52,1.1 0.99,2.23 1.4,3.38l7.1 2.74 0 0.88 44.4 0 -86.49 -45.75zm-81.02 136.97l162.03 0 0 9.1 -162.03 0 0 -9.1zm154.58 -83.81l0 6.96 -31.47 0 0 -6.96 31.47 0zm-115.65 6.96l-31.48 0 0 -6.97 31.48 0 0 6.97zm135.03 -56.74c0,1.79 -1.47,3.26 -3.26,3.26l-34.61 0c-1.79,0 -3.26,-1.47 -3.26,-3.26l0 -30.69 -22.79 0 0 34.29 -7.4 -3.91 0 -34.08c0,-2.04 1.66,-3.7 3.7,-3.7l26.49 0 0 -30.6c0,-1.79 1.46,-3.26 3.26,-3.26l3.52 0 2.34 9.45c0.41,1.65 1.89,2.81 3.58,2.81l15.73 0.01c1.83,0 3.34,-1.33 3.65,-3.07l2.28 -9.2 3.52 0c1.79,0 3.26,1.46 3.26,3.25l0 68.69zm-209.63 0.03l0 -5.76c0,-2.23 2.28,-4.05 5.06,-4.05l9.04 0 0 -9.44 -20.55 0c-3.27,0 -5.94,-2.67 -5.94,-5.94l0 -40.86c0,-3.27 2.67,-5.94 5.94,-5.94l65.38 0c3.27,0 5.94,2.67 5.94,5.94l0 22.52 16.15 0c2.04,0 3.7,1.66 3.7,3.7l0 37.48 14.12 0 -13.99 7.4 -3.83 0c-2.04,0 -3.7,-1.66 -3.7,-3.7l0 -37.48 -12.45 0 0 10.95c0,3.27 -2.67,5.94 -5.94,5.94l-20.55 0 0 9.44 9.04 0c2.79,0 5.06,1.82 5.06,4.05l0 5.76 -52.5 0zm116.7 -30.05c-3.58,0 -6.47,2.9 -6.47,6.47 0,3.58 2.9,6.48 6.47,6.48 3.58,0 6.48,-2.9 6.48,-6.48 0,-3.58 -2.9,-6.47 -6.48,-6.47zm17.65 -7.77c-4.57,-5 -10.84,-7.98 -17.65,-7.98 -6.81,0 -13.08,2.98 -17.65,7.98 -1.37,1.5 -1.27,3.83 0.23,5.2 1.5,1.37 3.83,1.27 5.2,-0.23 3.16,-3.46 7.49,-5.55 12.21,-5.55 4.72,0 9.05,2.09 12.21,5.55 1.37,1.5 3.7,1.6 5.2,0.23 1.5,-1.37 1.61,-3.7 0.23,-5.2l0 0zm-39.51 -5.59c5.66,-6.2 13.41,-9.93 21.86,-9.93 4.18,0 8.15,0.91 11.78,2.55 3.8,1.73 7.23,4.25 10.08,7.38 1.37,1.5 3.7,1.61 5.2,0.23 1.5,-1.37 1.61,-3.7 0.23,-5.2 -7.07,-7.74 -16.76,-12.36 -27.3,-12.36 -10.54,0 -20.23,4.62 -27.3,12.36 -1.37,1.5 -1.27,3.83 0.23,5.2 1.5,1.37 3.83,1.27 5.2,-0.23l0 0zm58.81 -15.54c-9.57,-10.47 -22.69,-16.73 -36.95,-16.73 -14.26,0 -27.38,6.26 -36.95,16.73 -1.37,1.5 -1.27,3.83 0.23,5.2 1.5,1.37 3.83,1.27 5.2,-0.23 8.17,-8.94 19.34,-14.31 31.51,-14.31 12.18,0 23.35,5.37 31.51,14.31 1.37,1.5 3.7,1.6 5.2,0.23 1.5,-1.37 1.6,-3.7 0.23,-5.2l0 0zm29.25 -13.03l1.2 4.87 9.95 0 1.2 -4.87 -12.36 0zm3.18 69.73c-2.04,0 -3.7,-1.66 -3.7,-3.7 0,-2.04 1.66,-3.7 3.7,-3.7l6 0c2.04,0 3.7,1.66 3.7,3.7 0,2.04 -1.66,3.7 -3.7,3.7l-6 0zm-9.42 76.87l0 41.03 -14.47 0 0 -41.03 14.47 0zm-52.72 18.71l0 22.32 -14.47 0 0 -22.32 14.47 0zm-52.72 -18.71l0 41.03 -14.47 0 0 -41.03 14.47 0zm-16.47 48.43l18.48 0c2.27,0 4.26,1.26 5.32,3.11l-29.11 0c1.05,-1.85 3.05,-3.11 5.32,-3.11l0 0zm52.72 0l18.47 0c2.27,0 4.27,1.26 5.32,3.11l-29.12 0c1.05,-1.85 3.05,-3.11 5.32,-3.11zm52.72 0l18.47 0c2.27,0 4.27,1.26 5.32,3.11l-29.12 0c1.05,-1.85 3.05,-3.11 5.32,-3.11zm23.79 -58.94c-1.05,1.85 -3.05,3.11 -5.32,3.11l-18.47 0c-2.27,0 -4.27,-1.26 -5.32,-3.11l29.12 0z"/>
 </g>
</svg>
