<?xml version="1.0" encoding="UTF-8"?>
<!DOCTYPE svg PUBLIC "-//W3C//DTD SVG 1.1//EN" "http://www.w3.org/Graphics/SVG/1.1/DTD/svg11.dtd">
<!-- Creator: CorelDRAW -->
<svg xmlns="http://www.w3.org/2000/svg" xml:space="preserve" width="15mm" height="15mm" version="1.1" style="shape-rendering:geometricPrecision; text-rendering:geometricPrecision; image-rendering:optimizeQuality; fill-rule:evenodd; clip-rule:evenodd"
viewBox="0 0 410.31 410.31"
 xmlns:xlink="http://www.w3.org/1999/xlink"
 xmlns:xodm="http://www.corel.com/coreldraw/odm/2003">
 <defs>
  <style type="text/css">
   <![CDATA[
    .fil0 {fill:none}
    .fil1 {fill:white;fill-rule:nonzero}
   ]]>
  </style>
 </defs>
 <g id="Layer_x0020_1">
  <metadata id="CorelCorpID_0Corel-Layer"/>
  <circle class="fil0" cx="205.15" cy="205.15" r="205.15"/>
  <path class="fil1" d="M283.7 196.38l-17.08 0c1.74,4.77 2.69,9.91 2.69,15.27l0 64.56c0,2.23 -0.39,4.38 -1.1,6.38l28.24 0c10.55,0 19.13,-8.58 19.13,-19.13l0 -35.19c0,-17.58 -14.3,-31.88 -31.88,-31.88zm-11.22 -65.41c-15.81,0 -28.68,12.86 -28.68,28.68 0,4.87 1.22,9.45 3.37,13.47 3.06,5.73 8.01,10.3 14.01,12.88 3.47,1.49 7.29,2.33 11.3,2.33 15.81,0 28.68,-12.86 28.68,-28.68 0,-15.81 -12.86,-28.68 -28.68,-28.68zm-134.66 0c-15.81,0 -28.68,12.86 -28.68,28.68 0,15.81 12.86,28.68 28.68,28.68 4.01,0 7.83,-0.83 11.3,-2.33 6,-2.58 10.94,-7.15 14.01,-12.88 2.15,-4.02 3.37,-8.6 3.37,-13.47 0,-15.81 -12.86,-28.68 -28.68,-28.68zm67.33 -35.74c-21.14,0 -38.34,17.2 -38.34,38.34 0,14.34 7.91,26.87 19.6,33.44 5.54,3.12 11.93,4.9 18.74,4.9 6.8,0 13.19,-1.78 18.74,-4.9 11.69,-6.58 19.6,-19.1 19.6,-33.44 0,-21.14 -17.2,-38.34 -38.34,-38.34zm19.53 84.54l-39.05 0c-17.58,0 -31.88,14.3 -31.88,31.88l0 64.56c0,3.52 2.85,6.38 6.38,6.38l90.06 0c3.52,0 6.38,-2.85 6.38,-6.38l0 -64.56c0,-17.58 -14.3,-31.88 -31.88,-31.88zm-83.68 31.88c0,-5.36 0.95,-10.5 2.69,-15.27l-17.08 0c-17.58,0 -31.88,14.3 -31.88,31.88l0 35.19c0,10.55 8.58,19.13 19.13,19.13l28.24 0c-0.71,-1.99 -1.1,-4.14 -1.1,-6.38l0 -64.56z"/>
 </g>
</svg>
