<?xml version="1.0" encoding="UTF-8"?>
<!DOCTYPE svg PUBLIC "-//W3C//DTD SVG 1.1//EN" "http://www.w3.org/Graphics/SVG/1.1/DTD/svg11.dtd">
<!-- Creator: CorelDRAW -->
<svg xmlns="http://www.w3.org/2000/svg" xml:space="preserve" width="15mm" height="15mm" version="1.1" style="shape-rendering:geometricPrecision; text-rendering:geometricPrecision; image-rendering:optimizeQuality; fill-rule:evenodd; clip-rule:evenodd"
viewBox="0 0 245.72 245.72"
 xmlns:xlink="http://www.w3.org/1999/xlink"
 xmlns:xodm="http://www.corel.com/coreldraw/odm/2003">
 <defs>
  <style type="text/css">
   <![CDATA[
    .fil0 {fill:none}
    .fil1 {fill:white;fill-rule:nonzero}
   ]]>
  </style>
 </defs>
 <g id="Layer_x0020_1">
  <metadata id="CorelCorpID_0Corel-Layer"/>
  <circle class="fil0" cx="122.86" cy="122.86" r="122.86"/>
  <path class="fil1" d="M200.03 147.57c-0.28,-6.62 -2.85,-12.91 -7.18,-17.86 -0.98,-1.12 -2.67,-1.25 -3.82,-0.3 -7.69,6.36 -17.61,10.27 -28.4,10.37 -24.44,0.23 -44.84,-19.22 -45.74,-43.65 -0.27,-7.37 1.24,-14.61 4.38,-21.19 0.66,-1.37 0.08,-3.03 -1.3,-3.67 -29.07,-13.48 -62.21,9.32 -59.92,41.36 -35.85,12.51 -25.88,65.4 12.38,65.4l100.46 0c15.98,0 29.87,-13.34 29.13,-30.46zm-27.86 -46.79c-0.33,-0.19 -0.74,-0.15 -1.05,0.07 -2.27,3.11 -5.72,4.46 -9.51,3.69 -9.29,-1.88 -16.49,-14.69 -7.83,-21.02 0.23,-0.31 0.27,-0.73 0.08,-1.05 -1.4,-2.44 -3.43,-4.47 -5.87,-5.87 -0.38,-0.22 -0.87,-0.1 -1.2,0.22 -15.32,14.89 16.1,46.39 31.03,31.03 0.33,-0.34 0.42,-0.83 0.22,-1.19 -1.4,-2.45 -3.43,-4.48 -5.87,-5.87l0 0zm-11.97 -46.19c-21.98,0 -39.86,17.88 -39.86,39.86 0,21.98 17.88,39.86 39.86,39.86 21.98,0 39.86,-17.88 39.86,-39.86 0,-21.98 -17.88,-39.86 -39.86,-39.86zm21.55 57.08c-5.07,5.21 -11.98,6.97 -19.46,5.01 -18.25,-4.8 -33.97,-29.52 -19.31,-43.77 2.09,-2.03 5.26,-2.46 7.73,-1.05 3.29,1.88 6.03,4.62 7.91,7.9 1.44,2.51 1,5.7 -1.06,7.76 -0.63,0.63 -2.69,1.5 -2.1,4.43 0.64,3.15 4.09,6.6 7.24,7.24 2.94,0.59 3.88,-1.52 4.39,-2.05 1.92,-2.02 5.2,-2.59 7.8,-1.11 3.29,1.88 6.02,4.61 7.9,7.91 1.41,2.47 0.98,5.65 -1.04,7.73zm-92.47 -25.4c1.4,-0.57 3,0.1 3.57,1.5 0.57,1.4 -0.1,3 -1.51,3.57 -8.73,3.55 -14.03,12.24 -13.19,21.61 0.14,1.51 -0.98,2.83 -2.48,2.97 -1.56,0.13 -2.84,-1.01 -2.97,-2.48 -1.06,-11.78 5.6,-22.7 16.58,-27.17z"/>
 </g>
</svg>
