<?xml version="1.0" encoding="UTF-8"?>
<!DOCTYPE svg PUBLIC "-//W3C//DTD SVG 1.1//EN" "http://www.w3.org/Graphics/SVG/1.1/DTD/svg11.dtd">
<!-- Creator: CorelDRAW -->
<svg xmlns="http://www.w3.org/2000/svg" xml:space="preserve" width="15mm" height="15mm" version="1.1" style="shape-rendering:geometricPrecision; text-rendering:geometricPrecision; image-rendering:optimizeQuality; fill-rule:evenodd; clip-rule:evenodd"
viewBox="0 0 860.48 860.48"
 xmlns:xlink="http://www.w3.org/1999/xlink"
 xmlns:xodm="http://www.corel.com/coreldraw/odm/2003">
 <defs>
  <style type="text/css">
   <![CDATA[
    .fil1 {fill:none}
    .fil0 {fill:white;fill-rule:nonzero}
   ]]>
  </style>
 </defs>
 <g id="Layer_x0020_1">
  <metadata id="CorelCorpID_0Corel-Layer"/>
  <path class="fil0" d="M542.92 536.69l4.46 -23.16 -22.27 0c-14.26,0 -25.84,-10.69 -26.73,-24.94l-0.89 -12.47c-5.35,-1.78 -10.69,-4.45 -16.03,-6.24 -4.46,3.56 -17.82,22.27 -38.31,12.47l-12.47 0 0 -10.69c-13.37,-13.37 -20.49,-20.49 -24.05,-24.05l-0.89 0 0 97.1 128.27 0c4.46,-0.89 8.02,-3.56 8.91,-8.02l0 0zm163.9 -239.62l-24.94 -0.89c-3.56,-12.47 -8.01,-24.94 -15.14,-35.63l16.92 -18.71c2.67,-3.56 2.67,-8.91 0,-11.58l-34.74 -34.74c-3.56,-3.56 -8.91,-3.56 -11.58,0l-18.71 16.92c-10.69,-6.24 -23.16,-11.58 -35.63,-15.14l-0.89 -24.94c0,-4.46 -3.56,-8.02 -8.91,-8.02l-49 0c-4.45,0 -8.01,3.56 -8.9,8.02l-0.89 24.94c-12.47,3.56 -24.94,8.01 -35.63,15.14l-18.71 -16.92c-3.56,-2.67 -8.91,-2.67 -11.58,0l-34.74 34.74c-3.56,3.56 -3.56,8.91 0,11.58l16.93 18.71c-6.24,11.58 -11.58,23.16 -15.14,35.63l-24.94 0.89c-4.46,0 -8.02,4.46 -8.02,8.91l0 49c0,4.45 3.56,8.01 8.02,8.9l16.03 0.89 8.91 0c3.56,12.47 8.01,24.05 15.14,35.63l-16.93 18.71c-3.56,3.56 -2.67,8.91 0,11.58l34.74 34.74c3.56,3.56 8.91,3.56 12.47,0 0.89,-0.89 0.89,-0.89 1.78,-1.78l16.92 -15.14c11.58,7.12 23.16,11.58 35.63,15.14l0.89 24.94c0,4.45 4.45,8.02 8.91,8.02l48.99 0c4.46,0 8.02,-3.57 8.91,-8.02l0.89 -24.94c12.47,-3.56 24.94,-8.02 35.64,-15.14l18.71 16.93c3.56,2.67 8.9,2.67 11.58,0l34.74 -34.74c3.56,-3.57 3.56,-8.91 0,-11.58l-16.92 -18.71c7.12,-11.58 11.58,-23.16 15.14,-35.63l24.94 -0.89c4.45,0 8.01,-4.45 8.01,-8.9l0 -49.88c-0.89,-4.46 -4.45,-8.02 -8.91,-8.02l0 0zm-146.09 96.21c-37.41,7.12 -73.04,-20.49 -75.72,-58.79 -3.56,-35.63 25.83,-69.48 64.13,-69.48 35.64,0 65.03,29.39 65.03,65.03 -0.89,31.17 -23.16,57.9 -53.45,63.25l0 0zm-36.52 208.44l-244.07 0 -57.01 -308.21c-3.56,-20.49 -22.27,-36.52 -43.65,-36.52l-25.83 0c-4.46,0 -8.91,4.46 -8.91,8.91 0,5.35 4.45,8.91 8.91,8.91l26.72 0c12.47,0 23.16,8.91 25.83,21.38l56.12 307.32c-20.49,5.34 -34.74,23.16 -34.74,45.43 0,25.83 21.38,47.21 47.21,47.21 25.83,0 47.21,-21.38 47.21,-47.21 0,-10.69 -3.56,-21.38 -10.69,-29.39l177.26 0c-6.24,8.01 -10.69,17.81 -10.69,29.39 0,25.83 21.37,47.21 47.21,47.21 25.83,0 47.21,-21.38 47.21,-47.21 -0.89,-25.83 -22.27,-47.21 -48.11,-47.21l0 0zm-136.29 -171.92l0 -48.99c-12.47,-1.78 -22.27,-13.36 -22.27,-25.83l0 -21.38 -56.12 0 8.02 96.2 70.37 0zm0 114.03l0 -96.21 -69.48 0 8.91 96.21 60.57 0zm-100.66 0l22.27 0 -8.91 -96.21 -31.18 0 17.82 96.21zm12.47 -114.03l-8.91 -97.09 -41.87 0 17.82 97.09 32.96 0z"/>
  <g id="_2048143670256">
   <circle class="fil1" cx="430.24" cy="430.24" r="430.24"/>
  </g>
 </g>
</svg>
