<?xml version="1.0" encoding="UTF-8"?>
<!DOCTYPE svg PUBLIC "-//W3C//DTD SVG 1.1//EN" "http://www.w3.org/Graphics/SVG/1.1/DTD/svg11.dtd">
<!-- Creator: CorelDRAW -->
<svg xmlns="http://www.w3.org/2000/svg" xml:space="preserve" width="15mm" height="15mm" version="1.1" style="shape-rendering:geometricPrecision; text-rendering:geometricPrecision; image-rendering:optimizeQuality; fill-rule:evenodd; clip-rule:evenodd"
viewBox="0 0 419.83 419.83"
 xmlns:xlink="http://www.w3.org/1999/xlink"
 xmlns:xodm="http://www.corel.com/coreldraw/odm/2003">
 <defs>
  <style type="text/css">
   <![CDATA[
    .fil0 {fill:none}
    .fil1 {fill:white;fill-rule:nonzero}
   ]]>
  </style>
 </defs>
 <g id="Layer_x0020_1">
  <metadata id="CorelCorpID_0Corel-Layer"/>
  <circle class="fil0" cx="209.92" cy="209.92" r="209.92"/>
  <path class="fil1" d="M257.86 92.13l0 41.37 30.85 0 -30.85 -41.37zm-123.53 196.66l51.03 0 0 -41.1 -51.03 0 0 41.1zm18.39 -26.72c0.35,-9.44 13.89,-9.43 14.24,0l0 12.34c-0.35,9.44 -13.89,9.43 -14.24,0l0 -12.34zm171.59 -78.74l-136.22 0c-2.01,0 -3.92,-0.85 -5.27,-2.33l-12.12 -13.33 -75.17 0c-3.93,0 -7.12,3.19 -7.12,7.12l0 149.51c0,3.93 3.19,7.12 7.12,7.12l228.78 0c3.93,0 7.12,-3.19 7.12,-7.12l0 -133.85c0,-3.93 -3.19,-7.12 -7.12,-7.12l0 0zm-100.15 76.89l56.96 0c9.44,0.35 9.43,13.89 0,14.24l-56.96 0c-9.44,-0.35 -9.43,-13.89 0,-14.24zm-24.56 35.68c0,3.93 -3.19,7.12 -7.12,7.12l-65.26 0c-3.93,0 -7.12,-3.19 -7.12,-7.12l0 -55.34c0,-3.93 3.19,-7.12 7.12,-7.12l1.66 0 0 -4.9c1.56,-41.05 60.4,-41.01 61.95,0l0 4.9 1.66 0c3.93,0 7.12,3.19 7.12,7.12l0 55.34zm96.23 7.04l-71.67 0c-9.44,-0.35 -9.43,-13.89 0,-14.24l71.67 0c9.44,0.35 9.43,13.89 0,14.24zm-119.25 -74.4c-0.85,-22.18 -32.64,-22.16 -33.47,0l0 4.9 33.47 0 0 -4.9zm-59.69 -103.6l-21.36 0c-3.93,0 -7.12,3.19 -7.12,7.12l0 21.36 28.48 0 0 -28.48zm62.23 30.81l12.12 13.33 97.48 0 0 -21.36 -37.97 0c-3.93,0 -7.12,-3.19 -7.12,-7.12l0 -52.21 -105.37 0c-3.93,0 -7.12,3.19 -7.12,7.12l0 57.91 42.72 0c2,0 3.92,0.85 5.27,2.33zm145.2 -30.81l-21.36 0 0 44.14 28.48 0 0 -37.02c0,-3.93 -3.19,-7.12 -7.12,-7.12l0 0z"/>
 </g>
</svg>
