<?xml version="1.0" encoding="UTF-8"?>
<!DOCTYPE svg PUBLIC "-//W3C//DTD SVG 1.1//EN" "http://www.w3.org/Graphics/SVG/1.1/DTD/svg11.dtd">
<!-- Creator: CorelDRAW -->
<svg xmlns="http://www.w3.org/2000/svg" xml:space="preserve" width="15mm" height="15mm" version="1.1" style="shape-rendering:geometricPrecision; text-rendering:geometricPrecision; image-rendering:optimizeQuality; fill-rule:evenodd; clip-rule:evenodd"
viewBox="0 0 24.69 24.69"
 xmlns:xlink="http://www.w3.org/1999/xlink"
 xmlns:xodm="http://www.corel.com/coreldraw/odm/2003">
 <defs>
  <style type="text/css">
   <![CDATA[
    .fil0 {fill:none}
    .fil1 {fill:white;fill-rule:nonzero}
   ]]>
  </style>
 </defs>
 <g id="Layer_x0020_1">
  <metadata id="CorelCorpID_0Corel-Layer"/>
  <g id="_2514744179792">
   <circle class="fil0" cx="12.35" cy="12.35" r="12.35"/>
   <path class="fil1" d="M11.25 18.43c-0.14,-0.17 -0.26,-0.38 -0.37,-0.61 -0.11,0.06 -0.22,0.14 -0.33,0.21 0.21,0.16 0.45,0.3 0.7,0.4zm1.29 -5.65l0 1.18c0.31,-0.02 0.62,-0.09 0.91,-0.21 -0.23,-0.51 -0.55,-0.87 -0.91,-0.97zm5.68 -6.05c0,-0.35 -0.29,-0.64 -0.64,-0.64l-10.47 0c-0.35,0 -0.64,0.29 -0.64,0.64l0 1.4 11.75 0 0 -1.4zm-10.51 0.77c-0.22,0 -0.39,-0.18 -0.39,-0.39 0,-0.22 0.18,-0.39 0.39,-0.39 0.22,0 0.39,0.18 0.39,0.39 0,0.22 -0.18,0.39 -0.39,0.39zm1.44 0c-0.22,0 -0.39,-0.18 -0.39,-0.39 0,-0.22 0.18,-0.39 0.39,-0.39 0.22,0 0.39,0.18 0.39,0.39 0,0.22 -0.17,0.39 -0.39,0.39zm1.44 0c-0.22,0 -0.39,-0.18 -0.39,-0.39 0,-0.22 0.18,-0.39 0.39,-0.39 0.22,0 0.39,0.18 0.39,0.39 0,0.22 -0.18,0.39 -0.39,0.39zm3.84 6.12c-0.15,0.12 -0.31,0.23 -0.48,0.32 0.16,0.46 0.25,0.98 0.27,1.56l1.06 0c-0.05,-0.73 -0.36,-1.39 -0.85,-1.88l0 0zm-2.93 -3.84l1.69 0 0 1.7 -1.69 0 0 -1.7zm-3.98 0l1.7 0 0 1.7 -1.7 0 0 -1.7zm4.64 5.72l0 -1.15c-0.36,-0.02 -0.72,-0.1 -1.05,-0.24 -0.14,0.41 -0.22,0.88 -0.24,1.38l1.29 0zm0 3.11l0 -1.18c-0.31,0.02 -0.62,0.09 -0.91,0.21 0.23,0.52 0.55,0.87 0.91,0.97zm-5.68 -2.67c0,0.35 0.29,0.64 0.64,0.64l2.02 0c-0.08,-0.28 -0.12,-0.58 -0.12,-0.89 0,-1.84 1.5,-3.34 3.34,-3.34 1.84,0 3.34,1.5 3.34,3.34 0,0.31 -0.05,0.6 -0.12,0.89l2.02 0c0.35,0 0.64,-0.29 0.64,-0.64l0 -7.42 -11.75 0 0 7.42zm10.92 -2.21l-1.27 0c-0.11,0 -0.2,-0.09 -0.2,-0.2 0,-0.11 0.09,-0.2 0.2,-0.2l1.27 -0c0.11,0 0.2,0.09 0.2,0.2 0,0.11 -0.09,0.2 -0.2,0.2l0 0zm-2.3 -4.15c0,-0.11 0.09,-0.2 0.2,-0.2l2.09 0c0.11,0 0.2,0.09 0.2,0.2l0 2.09c0,0.11 -0.09,0.2 -0.2,0.2l-2.09 0c-0.11,0 -0.2,-0.09 -0.2,-0.2l-0 -2.09zm0.2 2.92l2.1 0c0.11,0 0.2,0.09 0.2,0.2 0,0.11 -0.09,0.2 -0.2,0.2l-2.1 0c-0.11,0 -0.2,-0.09 -0.2,-0.2 0,-0.11 0.09,-0.2 0.2,-0.2l0 0zm-4.18 -2.92c0,-0.11 0.09,-0.2 0.2,-0.2l2.09 0c0.11,0 0.2,0.09 0.2,0.2l0 2.09c0,0.11 -0.09,0.2 -0.2,0.2l-2.09 0c-0.11,0 -0.2,-0.09 -0.2,-0.2l0 -2.09zm-3.98 0c0,-0.11 0.09,-0.2 0.2,-0.2l2.09 0c0.11,0 0.2,0.09 0.2,0.2l0 2.09c0,0.11 -0.09,0.2 -0.2,0.2l-2.09 0c-0.11,0 -0.2,-0.09 -0.2,-0.2l0 -2.09zm0.2 2.92l2.1 0c0.11,0 0.2,0.09 0.2,0.2 0,0.11 -0.09,0.2 -0.2,0.2l-2.1 0c-0.11,0 -0.2,-0.09 -0.2,-0.2 0,-0.11 0.09,-0.2 0.2,-0.2l0 0zm0 0.84l1.27 0c0.11,0 0.2,0.09 0.2,0.2 0,0.11 -0.09,0.2 -0.2,0.2l-1.27 0c-0.11,0 -0.2,-0.09 -0.2,-0.2 0,-0.11 0.09,-0.2 0.2,-0.2l0 -0zm4.83 3.7l0 -1.15 -1.29 0c0.02,0.5 0.1,0.98 0.24,1.39 0.33,-0.14 0.69,-0.22 1.05,-0.24l0 0zm-1.68 -1.54c0.02,-0.57 0.11,-1.1 0.27,-1.56 -0.17,-0.09 -0.33,-0.2 -0.48,-0.32 -0.49,0.49 -0.8,1.15 -0.85,1.88l1.06 0 0 -0zm2.07 0.39l0 1.15c0.36,0.02 0.72,0.1 1.05,0.24 0.14,-0.41 0.22,-0.88 0.24,-1.39l-1.29 0zm0 -1.54l0 1.15 1.29 0c-0.02,-0.5 -0.1,-0.98 -0.24,-1.38 -0.33,0.13 -0.69,0.22 -1.05,0.24l0 0zm1.27 -0.78c0.11,-0.06 0.22,-0.14 0.33,-0.21 -0.21,-0.16 -0.45,-0.3 -0.7,-0.4 0.14,0.17 0.26,0.38 0.37,0.61zm-1.27 5.04c0.36,-0.1 0.68,-0.45 0.91,-0.97 -0.29,-0.12 -0.59,-0.19 -0.91,-0.21l0 1.18zm1.27 -0.79c-0.11,0.23 -0.23,0.44 -0.37,0.61 0.25,-0.1 0.48,-0.24 0.7,-0.4 -0.1,-0.08 -0.21,-0.15 -0.32,-0.21zm-1.66 -3.86l0 -1.18c-0.36,0.1 -0.68,0.46 -0.91,0.97 0.29,0.12 0.59,0.19 0.91,0.21zm2.07 1.93c-0.02,0.57 -0.11,1.1 -0.27,1.56 0.17,0.09 0.33,0.2 0.48,0.32 0.49,-0.49 0.8,-1.15 0.85,-1.88l-1.06 0 0 0zm1.26 -6.11l1.7 0 0 1.7 -1.7 0 0 -1.7zm-4.6 3.8c0.11,-0.23 0.23,-0.44 0.37,-0.61 -0.25,0.1 -0.48,0.24 -0.7,0.4 0.1,0.08 0.21,0.15 0.32,0.21zm-0.14 3.87c-0.16,-0.46 -0.25,-0.98 -0.27,-1.56l-1.06 0c0.05,0.73 0.36,1.39 0.85,1.88 0.15,-0.12 0.31,-0.23 0.48,-0.32l0 0z"/>
  </g>
 </g>
</svg>
