<svg width="57" height="57" viewBox="0 0 57 57" fill="none" xmlns="http://www.w3.org/2000/svg">
<path d="M32.7537 39.3344C32.5333 39.5551 32.1756 39.5551 31.9549 39.3344C31.7344 39.1139 31.7344 38.7563 31.9549 38.5355L33.7858 36.7045C34.0066 36.4841 34.3639 36.4841 34.5847 36.7045C34.8052 36.925 34.8052 37.2829 34.5847 37.5034L32.7537 39.3344ZM32.1793 35.0977C32.4001 34.8772 32.7577 34.8772 32.9782 35.0977C33.1986 35.3182 33.1986 35.6761 32.9782 35.8966L31.1469 37.7275C30.9264 37.9483 30.5685 37.9483 30.348 37.7275C30.1276 37.507 30.1276 37.1491 30.348 36.9287L32.179 35.0977H32.1793ZM33.1232 42.4811C32.8112 42.4811 32.5582 42.2284 32.5582 41.9161C32.5582 41.6041 32.8112 41.3511 33.1232 41.3511H42.0466C42.8156 41.3511 43.5123 41.0394 44.0162 40.5355C44.5201 40.0313 44.8321 39.3353 44.8321 38.5662V36.7048C44.8321 36.3928 45.0848 36.1398 45.3971 36.1398C45.7088 36.1398 45.9618 36.3928 45.9618 36.7048V38.5662C45.9618 39.6473 45.5236 40.6259 44.8151 41.3347C44.1065 42.0432 43.1277 42.4814 42.0466 42.4814H33.1232V42.4811ZM45.9618 23.5588C45.9618 23.8708 45.7088 24.1238 45.3971 24.1238C45.0851 24.1238 44.8321 23.8708 44.8321 23.5588V21.1391C44.8321 20.37 44.5201 19.6737 44.0162 19.1698C43.512 18.6656 42.8156 18.3539 42.0466 18.3539H14.2626C13.4935 18.3539 12.7971 18.6656 12.2933 19.1698C11.7891 19.6737 11.4774 20.37 11.4774 21.1391V38.5662C11.4774 39.3353 11.7891 40.0317 12.2933 40.5355C12.7975 41.0397 13.4935 41.3511 14.2626 41.3511V41.3533H22.4367C22.7478 41.3533 22.9996 41.6053 22.9996 41.9161C22.9996 42.2272 22.7478 42.479 22.4367 42.479H14.2626V42.4811C13.1815 42.4811 12.2029 42.0429 11.4944 41.3344C10.7856 40.6259 10.3477 39.647 10.3477 38.5659V21.1388C10.3477 20.0577 10.7859 19.0792 11.4944 18.3703C12.2029 17.6618 13.1815 17.2236 14.2626 17.2236H42.0466C43.1277 17.2236 44.1065 17.6618 44.8151 18.3703C45.5236 19.0792 45.9618 20.0577 45.9618 21.1388V23.5585V23.5588ZM10.3477 23.4691C10.3477 23.1571 10.6007 22.9041 10.9124 22.9041C11.2244 22.9041 11.4774 23.1571 11.4774 23.4691C11.4774 24.9896 12.0938 26.3662 13.09 27.3624C14.0862 28.3586 15.4628 28.975 16.9833 28.975H17.053C17.365 28.975 17.618 29.228 17.618 29.5397C17.618 29.8517 17.3653 30.1048 17.053 30.1048H16.9833C15.1512 30.1048 13.492 29.3622 12.2911 28.1613C11.0903 26.9607 10.3477 25.3013 10.3477 23.4691ZM20.1842 30.1048C19.8722 30.1048 19.6192 29.8517 19.6192 29.5397C19.6192 29.2277 19.8722 28.975 20.1842 28.975H30.7744C31.0864 28.975 31.3394 29.2277 31.3394 29.5397C31.3394 29.8517 31.0867 30.1048 30.7744 30.1048H20.1842ZM27.3226 44.07L31.9293 39.4633C31.9512 39.4417 31.9619 39.4134 31.9619 39.3848C31.9619 39.3566 31.9512 39.3277 31.9293 39.3061L30.3766 37.7534C30.355 37.7318 30.3267 37.7211 30.2982 37.7211C30.2696 37.7211 30.241 37.7318 30.2194 37.7534L25.6127 42.3601C25.3767 42.5961 25.2587 42.9057 25.2587 43.2152C25.2587 43.5248 25.3767 43.8341 25.6127 44.07C25.8486 44.306 26.1582 44.424 26.4678 44.424C26.7773 44.424 27.0866 44.306 27.3226 44.07ZM32.7285 40.2622L28.1217 44.8689C27.665 45.3257 27.0665 45.554 26.4681 45.554C25.8696 45.554 25.2712 45.3257 24.8144 44.8689C24.3576 44.4121 24.1293 43.8134 24.1293 43.2152C24.1293 42.6168 24.3576 42.0183 24.8144 41.5616L29.4211 36.9548C29.6635 36.7124 29.981 36.5911 30.2985 36.5911C30.6159 36.5911 30.9334 36.7121 31.1758 36.9548L32.7285 38.5075C32.9709 38.7499 33.0922 39.0674 33.0922 39.3848C33.0922 39.7023 32.9709 40.0198 32.7285 40.2622ZM28.4049 38.7694C28.1844 38.5486 28.1844 38.191 28.4049 37.9705C28.6256 37.75 28.9829 37.75 29.2037 37.9705L31.7125 40.4793C31.9333 40.6997 31.9333 41.0577 31.7125 41.2781C31.492 41.4989 31.1341 41.4989 30.9136 41.2781L28.4049 38.7694ZM46.1707 36.7514C44.3425 38.5796 41.9468 39.4934 39.5512 39.4934C37.1552 39.4934 34.7595 38.5793 32.9313 36.7514C31.1031 34.9231 30.1896 32.5275 30.1896 30.1318H30.1917C30.1917 27.7346 31.1049 25.3387 32.9313 23.5123L32.9316 23.512C34.7595 21.684 37.1555 20.7699 39.5512 20.7699V20.7721C41.9481 20.7721 44.3443 21.6853 46.1707 23.512L46.171 23.5123C47.999 25.3402 48.9131 27.7361 48.9131 30.1318H48.9109C48.9109 32.5287 47.9977 34.925 46.171 36.7514H46.1707ZM39.5512 38.3637C41.658 38.3637 43.7647 37.56 45.3719 35.9525C46.9808 34.3435 47.7852 32.2371 47.7852 30.1318H47.7831C47.7831 28.025 46.9793 25.9186 45.3719 24.3111L45.3716 24.3108C43.7629 22.7022 41.6564 21.8978 39.5509 21.8978V21.8999C37.4441 21.8999 35.3373 22.7037 33.7302 24.3108L33.7299 24.3111C32.1212 25.9198 31.3169 28.0263 31.3169 30.1318H31.319C31.319 32.2386 32.1224 34.3454 33.7299 35.9525C35.3373 37.56 37.4441 38.3637 39.5509 38.3637H39.5512ZM45.0772 31.3403C45.1429 31.0356 45.4433 30.8419 45.748 30.9079C46.0527 30.9736 46.2465 31.274 46.1805 31.5787C46.0454 32.2 45.8204 32.8082 45.5057 33.3841C45.2001 33.9427 44.8145 34.464 44.3489 34.9298C43.024 36.2548 41.2876 36.9171 39.5512 36.9171C37.8148 36.9171 36.0781 36.2548 34.7535 34.9298C33.4285 33.6049 32.7659 31.8682 32.7659 30.1321C32.7659 28.3957 33.4282 26.6593 34.7535 25.3344C36.0784 24.0095 37.8148 23.3471 39.5512 23.3471C41.2876 23.3471 43.024 24.0095 44.3489 25.3344C44.8139 25.7994 45.1995 26.3206 45.5048 26.8786C45.8195 27.4533 46.0445 28.0615 46.1799 28.6819C46.2455 28.9866 46.0518 29.2867 45.7474 29.3527C45.4427 29.4184 45.1423 29.2247 45.0763 28.92C44.9626 28.3979 44.7758 27.8909 44.5162 27.4169C44.2662 26.9601 43.9445 26.5274 43.55 26.133C42.4459 25.0288 40.9984 24.4765 39.5512 24.4765C38.1037 24.4765 36.6562 25.0288 35.552 26.133C34.4478 27.2371 33.8956 28.6846 33.8956 30.1318C33.8956 31.579 34.4478 33.0265 35.552 34.1307C36.6562 35.2348 38.1037 35.7871 39.5512 35.7871C40.9984 35.7871 42.4459 35.2348 43.55 34.1307C43.9448 33.7363 44.2668 33.3026 44.5171 32.8456C44.7768 32.3706 44.9635 31.8633 45.0772 31.3403ZM18.6188 34.2736C18.0303 34.2736 17.4979 34.0352 17.112 33.6496C16.7264 33.264 16.488 32.7312 16.488 32.1431V28.5046C16.488 27.9165 16.7264 27.3837 17.112 26.9981C17.4976 26.6125 18.0303 26.3741 18.6188 26.3741C19.2069 26.3741 19.7397 26.6125 20.1252 26.9981C20.5108 27.3837 20.7492 27.9165 20.7492 28.5046V32.1431C20.7492 32.7312 20.5108 33.264 20.1252 33.6496C19.7397 34.0352 19.2069 34.2736 18.6188 34.2736ZM17.9111 32.8507C18.0921 33.032 18.3423 33.1439 18.6188 33.1439C18.8949 33.1439 19.1451 33.032 19.3261 32.8507C19.5073 32.6698 19.6192 32.4195 19.6192 32.1431V28.5046C19.6192 28.2285 19.5073 27.9782 19.3261 27.7973C19.1451 27.616 18.8949 27.5041 18.6188 27.5041C18.3423 27.5041 18.0921 27.616 17.9111 27.7973C17.7302 27.9782 17.618 28.2285 17.618 28.5046V32.1431C17.618 32.4195 17.7302 32.6698 17.9111 32.8507ZM20.1842 30.4067C20.4962 30.4067 20.7492 30.6594 20.7492 30.9717C20.7492 31.2837 20.4965 31.5367 20.1842 31.5367H17.053C16.7413 31.5367 16.4883 31.2837 16.4883 30.9717C16.4883 30.6597 16.7413 30.4067 17.053 30.4067H20.1842ZM35.1795 17.7889C35.1795 18.1009 34.9265 18.3539 34.6145 18.3539C34.3025 18.3539 34.0495 18.1009 34.0495 17.7889V15.2564C34.0495 14.518 33.7487 13.8481 33.2637 13.3628C32.7784 12.8774 32.1087 12.577 31.3701 12.577V12.5749H24.9397V12.577C24.2013 12.577 23.5314 12.8777 23.0461 13.3628C22.5607 13.8481 22.2603 14.5177 22.2603 15.2564V17.7889C22.2603 18.1009 22.0073 18.3539 21.6953 18.3539C21.3833 18.3539 21.1303 18.1009 21.1303 17.7889V15.2564C21.1303 14.206 21.5575 13.2536 22.2472 12.5639C22.9369 11.8742 23.8893 11.4473 24.9397 11.4473V11.4494H31.3701V11.4473C32.4204 11.4473 33.3729 11.8745 34.0629 12.5639C34.7526 13.2536 35.1798 14.206 35.1798 15.2564V17.7889H35.1795ZM24.5951 17.7889C24.5951 18.1009 24.3424 18.3539 24.0301 18.3539C23.7184 18.3539 23.4654 18.1009 23.4654 17.7889V15.2564C23.4654 14.8498 23.6309 14.4809 23.8976 14.2142C24.1642 13.9472 24.5331 13.7821 24.9397 13.7821V13.7842H31.3701V13.7821C31.7767 13.7821 32.1455 13.9475 32.4125 14.2142C32.6795 14.4809 32.8447 14.8498 32.8447 15.2564V17.7889C32.8447 18.1009 32.5916 18.3539 32.2796 18.3539C31.9676 18.3539 31.7146 18.1009 31.7146 17.7889V15.2564C31.7146 15.1618 31.6757 15.0757 31.6134 15.0131C31.551 14.9508 31.4647 14.9118 31.3701 14.9118V14.9097H24.9397V14.9118C24.8451 14.9118 24.7591 14.9508 24.6964 15.0131C24.6341 15.0754 24.5955 15.1618 24.5955 15.2564V17.7889H24.5951Z" fill="white"/>
</svg>
