<svg width="57" height="57" viewBox="0 0 57 57" fill="none" xmlns="http://www.w3.org/2000/svg">
<path d="M40.367 24.3691L39.54 25.2732L43.3011 28.721C44.1865 29.5356 44.6912 30.6833 44.6915 31.8862V46.8992H45.9181V31.8862C45.9165 30.3392 45.2678 28.8639 44.1285 27.8168L40.367 24.3691Z" fill="white"/>
<path d="M35.4921 10.1016H19.5468C17.8542 10.1037 16.4826 11.4753 16.4805 13.168V43.8318C16.4826 45.5244 17.8542 46.896 19.5468 46.8982H34.8787V45.8011C34.8758 43.0384 35.6936 40.3365 37.2289 38.0394C37.3914 37.7959 37.3587 37.472 37.1522 37.2654L32.8593 32.9725C32.4624 32.5751 32.2521 32.029 32.2799 31.4682C32.3078 30.9072 32.5714 30.3847 33.0053 30.0287C33.841 29.3899 35.0229 29.481 35.7508 30.2401L41.8044 36.2939L42.6716 35.4268L38.5583 31.3123V13.168C38.5562 11.4753 37.1846 10.1037 35.492 10.1016H35.4921ZM37.3319 30.0858L36.6181 29.372C35.4416 28.17 33.5493 28.0447 32.2247 29.0816C31.524 29.6574 31.0989 30.5029 31.0546 31.4092C31.0105 32.3153 31.3508 33.1979 31.9923 33.8397L35.9356 37.7832C34.465 40.153 33.6763 42.8828 33.6567 45.6717H19.547C18.5312 45.6717 17.7071 44.8478 17.7071 43.8319V41.9921H33.0391V40.7655H17.7071V15.0079H37.332V30.0859L37.3319 30.0858ZM37.3319 13.7812H17.707V13.168C17.707 12.1521 18.531 11.3281 19.5469 11.3281H35.4922C36.508 11.3281 37.332 12.1521 37.332 13.168V13.7812H37.3319Z" fill="white"/>
<path d="M20.1602 21.1407H22.6132C23.2908 21.1407 23.8398 20.5916 23.8398 19.9141V17.461C23.8398 16.7835 23.2908 16.2344 22.6132 16.2344H20.1602C19.4827 16.2344 18.9336 16.7835 18.9336 17.461V19.9141C18.9336 20.5916 19.4827 21.1407 20.1602 21.1407ZM20.1602 17.461H22.6132V19.9141H20.1602V17.461Z" fill="white"/>
<path d="M26.293 21.1407H28.7461C29.4236 21.1407 29.9727 20.5916 29.9727 19.9141V17.461C29.9727 16.7835 29.4236 16.2344 28.7461 16.2344H26.293C25.6155 16.2344 25.0664 16.7835 25.0664 17.461V19.9141C25.0664 20.5916 25.6155 21.1407 26.293 21.1407ZM26.293 17.461H28.7461V19.9141H26.293V17.461Z" fill="white"/>
<path d="M32.4258 21.1407H34.8789C35.5564 21.1407 36.1054 20.5916 36.1054 19.9141V17.461C36.1054 16.7835 35.5564 16.2344 34.8789 16.2344H32.4258C31.7483 16.2344 31.1992 16.7835 31.1992 17.461V19.9141C31.1992 20.5916 31.7483 21.1407 32.4258 21.1407ZM32.4258 17.461H34.8789V19.9141H32.4258V17.461Z" fill="white"/>
<path d="M20.1602 27.2734H22.6132C23.2908 27.2734 23.8398 26.7243 23.8398 26.0468V23.5938C23.8398 22.9163 23.2908 22.3672 22.6132 22.3672H20.1602C19.4827 22.3672 18.9336 22.9163 18.9336 23.5938V26.0468C18.9336 26.7243 19.4827 27.2734 20.1602 27.2734ZM20.1602 23.5938H22.6132V26.0468H20.1602V23.5938Z" fill="white"/>
<path d="M20.1602 33.4063H22.6132C23.2908 33.4063 23.8398 32.8572 23.8398 32.1797V29.7266C23.8398 29.0491 23.2908 28.5 22.6132 28.5H20.1602C19.4827 28.5 18.9336 29.0491 18.9336 29.7266V32.1797C18.9336 32.8572 19.4827 33.4063 20.1602 33.4063ZM20.1602 29.7266H22.6132V32.1797H20.1602V29.7266Z" fill="white"/>
<path d="M26.293 27.2734H28.7461C29.4236 27.2734 29.9727 26.7243 29.9727 26.0468V23.5938C29.9727 22.9163 29.4236 22.3672 28.7461 22.3672H26.293C25.6155 22.3672 25.0664 22.9163 25.0664 23.5938V26.0468C25.0664 26.7243 25.6155 27.2734 26.293 27.2734ZM26.293 23.5938H28.7461V26.0468H26.293V23.5938Z" fill="white"/>
<path d="M32.4258 27.2734H34.8789C35.5564 27.2734 36.1054 26.7243 36.1054 26.0468V23.5938C36.1054 22.9163 35.5564 22.3672 34.8789 22.3672H32.4258C31.7483 22.3672 31.1992 22.9163 31.1992 23.5938V26.0468C31.1992 26.7243 31.7483 27.2734 32.4258 27.2734ZM32.4258 23.5938H34.8789V26.0468H32.4258V23.5938Z" fill="white"/>
<path d="M26.293 33.4063H28.7461C29.4236 33.4063 29.9727 32.8572 29.9727 32.1797V29.7266C29.9727 29.0491 29.4236 28.5 28.7461 28.5H26.293C25.6155 28.5 25.0664 29.0491 25.0664 29.7266V32.1797C25.0664 32.8572 25.6155 33.4063 26.293 33.4063ZM26.293 29.7266H28.7461V32.1797H26.293V29.7266Z" fill="white"/>
<path d="M20.1602 39.539H22.6132C23.2908 39.539 23.8398 38.9899 23.8398 38.3124V35.8594C23.8398 35.1819 23.2908 34.6328 22.6132 34.6328H20.1602C19.4827 34.6328 18.9336 35.1819 18.9336 35.8594V38.3124C18.9336 38.9899 19.4827 39.539 20.1602 39.539ZM20.1602 35.8594H22.6132V38.3124H20.1602V35.8594Z" fill="white"/>
<path d="M26.293 39.539H28.7461C29.4236 39.539 29.9727 38.9899 29.9727 38.3124V35.8594C29.9727 35.1819 29.4236 34.6328 28.7461 34.6328H26.293C25.6155 34.6328 25.0664 35.1819 25.0664 35.8594V38.3124C25.0664 38.9899 25.6155 39.539 26.293 39.539ZM26.293 35.8594H28.7461V38.3124H26.293V35.8594Z" fill="white"/>
<path d="M26.9062 43.2188H28.1328V44.4453H26.9062V43.2188Z" fill="white"/>
</svg>
