<?xml version="1.0" encoding="UTF-8"?>
<!DOCTYPE svg PUBLIC "-//W3C//DTD SVG 1.1//EN" "http://www.w3.org/Graphics/SVG/1.1/DTD/svg11.dtd">
<!-- Creator: CorelDRAW -->
<svg xmlns="http://www.w3.org/2000/svg" xml:space="preserve" width="15mm" height="15mm" version="1.1" style="shape-rendering:geometricPrecision; text-rendering:geometricPrecision; image-rendering:optimizeQuality; fill-rule:evenodd; clip-rule:evenodd"
viewBox="0 0 245.72 245.72"
 xmlns:xlink="http://www.w3.org/1999/xlink"
 xmlns:xodm="http://www.corel.com/coreldraw/odm/2003">
 <defs>
  <style type="text/css">
   <![CDATA[
    .fil0 {fill:none}
    .fil1 {fill:white}
   ]]>
  </style>
 </defs>
 <g id="Layer_x0020_1">
  <metadata id="CorelCorpID_0Corel-Layer"/>
  <circle class="fil0" cx="122.86" cy="122.86" r="122.86"/>
  <path class="fil1" d="M122.86 165.97c-13.66,0 -24.9,-5.92 -32.47,-14.76 -6.45,-7.38 -9.97,-16.43 -10.54,-25.63 -0.84,-11.53 2.93,-23.56 12.5,-33.16 0.01,-0.01 0.03,-0.03 0.04,-0.04 6.9,-6.9 15.56,-10.97 24.54,-12.21 0.71,-0.1 1.43,-0.18 2.15,-0.24 8.45,-0.75 17.12,0.98 24.86,5.32 1.15,0.65 1.58,1.67 1.51,2.66 -0.01,0.46 -0.13,0.92 -0.38,1.35 -0.24,0.43 -0.57,0.77 -0.96,1.03 -0.81,0.58 -1.9,0.75 -3.06,0.1 -0.05,-0.03 -0.1,-0.05 -0.15,-0.08 -7.13,-3.96 -15.29,-5.39 -23.17,-4.3 -0.88,0.12 -1.76,0.28 -2.63,0.46 -6.81,1.49 -13.12,4.87 -18.14,9.69 -0.14,0.13 -0.27,0.26 -0.4,0.39 -7.27,7.27 -10.9,16.79 -10.9,26.31 0,9.52 3.63,19.04 10.9,26.31 0.58,0.59 1.18,1.15 1.8,1.69 6.18,5.31 14.02,8.54 22.14,9.14 0.79,0.05 1.58,0.07 2.37,0.07 9.52,0 19.04,-3.63 26.31,-10.9 5.74,-5.74 9.21,-12.87 10.42,-20.3 1.24,-7.63 0.1,-15.57 -3.43,-22.64 -0.59,-1.18 -0.37,-2.27 0.25,-3.05 0.27,-0.37 0.64,-0.69 1.08,-0.91 0.44,-0.22 0.91,-0.32 1.37,-0.31 0.99,-0.02 1.98,0.45 2.57,1.61 0,0.01 0.01,0.02 0.01,0.03 0.28,0.55 0.54,1.11 0.79,1.67 3.58,8 4.49,16.35 3.23,24.2 -0.02,0.11 -0.03,0.23 -0.05,0.34 -1.4,8.62 -5.42,16.89 -12.06,23.53 -1.48,1.48 -3.05,2.84 -4.68,4.06 -7.05,5.33 -15.89,8.57 -25.8,8.57zm-4.17 -28.49l-14.5 -14.49 6.42 -6.42 5.99 6c1.15,1.15 3.02,1.15 4.17,0l14.33 -14.33 6.42 6.42 -22.83 22.83zm79.75 -4.58l0 -20.08c0,-3.26 -2.64,-5.9 -5.9,-5.89l-8.72 0 -6.59 -15.89c3.87,-3.87 11.48,-9.22 6.17,-14.52l-14.2 -14.2c-2.63,-2.63 -5.64,-2.02 -8.35,0l-6.17 6.17 -15.89 -6.59 0.01 -8.72c0,-3.26 -2.64,-5.9 -5.9,-5.89l-20.08 -0.01c-7.5,0 -5.9,9.16 -5.9,14.66l-15.85 6.58c-3.79,-3.78 -9.2,-11.54 -14.55,-6.2 -19.41,19.41 -20.16,16.58 -7.98,28.77l-6.56 15.83c-5.52,0 -14.7,-1.6 -14.69,5.9l-0.01 20.08c0,7.51 9.19,5.9 14.73,5.9l6.56 15.81c-3.81,3.81 -11.6,9.25 -6.25,14.6l14.2 14.2c2.3,2.3 6.03,2.31 8.35,0l6.25 -6.25 15.82 6.56 -0.01 8.82c0,3.26 2.65,5.9 5.91,5.89l20.08 0.01c7.51,0 5.9,-9.18 5.9,-14.7l15.83 -6.56c3.9,3.9 9.26,11.53 14.57,6.22l14.2 -14.2c2.3,-2.3 2.31,-6.03 0,-8.35l-6.2 -6.2 6.59 -15.87 8.75 0.01c3.26,0 5.9,-2.64 5.9,-5.9z"/>
 </g>
</svg>
